<svg width="85" height="85" viewBox="0 0 85 85" fill="none" xmlns="http://www.w3.org/2000/svg">
<g id="GreenWave_Logo 2 2">
<path id="Vector" d="M77.638 45.799H69.656V50.1009H77.0022C77.5412 50.1009 77.9489 50.2254 78.2116 50.4675C78.4811 50.7096 78.6123 51.0276 78.6123 51.4288C78.6123 51.8299 78.4811 52.1481 78.2184 52.404C77.9559 52.653 77.5481 52.7774 77.0022 52.7774H69.656V57.7572H77.9144C78.4741 57.7572 78.8888 57.8886 79.1721 58.1444C79.4554 58.4004 79.5937 58.7461 79.5937 59.175C79.5937 59.5899 79.4554 59.9219 79.1721 60.1847C78.8888 60.4406 78.4672 60.572 77.9144 60.572H68.2876C67.5136 60.572 66.9608 60.3991 66.6222 60.0602C66.2835 59.7213 66.1177 59.168 66.1177 58.4004V45.2388C66.1177 44.727 66.1937 44.312 66.3457 43.9939C66.4978 43.6688 66.7327 43.4337 67.0575 43.2885C67.3824 43.1432 67.7901 43.0671 68.2946 43.0671H77.6449C78.2116 43.0671 78.6262 43.1916 78.9026 43.4406C79.179 43.6896 79.3172 44.0216 79.3172 44.4227C79.3172 44.8377 79.179 45.1697 78.9026 45.4186C78.6193 45.6745 78.2046 45.799 77.638 45.799Z" fill="#242828"/>
<path id="Vector_2" d="M19.5319 33.8617V37.2161C19.5319 37.6587 19.4904 38.0183 19.4005 38.2881C19.3107 38.5578 19.1518 38.7929 18.9168 39.0074C18.6819 39.2217 18.3847 39.4292 18.0184 39.6298C16.961 40.2038 15.9452 40.6188 14.9639 40.8816C13.9826 41.1444 12.9183 41.2758 11.7641 41.2758C10.4234 41.2758 9.19332 41.0683 8.08763 40.6534C6.98191 40.2384 6.04205 39.6367 5.26113 38.8482C4.48021 38.0598 3.88589 37.1054 3.46433 35.9849C3.04277 34.8645 2.83545 33.6058 2.83545 32.2226C2.83545 30.86 3.03586 29.6151 3.4436 28.4878C3.85133 27.3605 4.44566 26.3991 5.23349 25.6107C6.02132 24.8222 6.98191 24.2205 8.10836 23.7986C9.2348 23.3837 10.5203 23.1692 11.9507 23.1692C13.1256 23.1692 14.1691 23.3283 15.0744 23.6395C15.9797 23.9508 16.7192 24.3519 17.2789 24.8291C17.8456 25.3064 18.2672 25.8113 18.5574 26.3438C18.8408 26.8763 18.9859 27.3535 18.9859 27.7616C18.9859 28.2042 18.8201 28.5847 18.4883 28.9028C18.1567 29.214 17.7627 29.3731 17.2997 29.3731C17.044 29.3731 16.8021 29.3108 16.5672 29.1933C16.3322 29.0757 16.1387 28.9097 15.9797 28.6884C15.5444 28.0037 15.1712 27.4849 14.8671 27.1391C14.563 26.7864 14.1553 26.4959 13.6439 26.2539C13.1325 26.0118 12.4759 25.8942 11.6813 25.8942C10.8589 25.8942 10.1333 26.0325 9.4836 26.3161C8.84091 26.5997 8.28805 27.0077 7.83194 27.5472C7.37583 28.0866 7.02337 28.7437 6.7815 29.5253C6.53962 30.3068 6.41522 31.1713 6.41522 32.1188C6.41522 34.1729 6.88516 35.7498 7.83194 36.8564C8.77181 37.963 10.0918 38.5163 11.778 38.5163C12.6004 38.5163 13.3675 38.4056 14.0862 38.1912C14.8049 37.9768 15.5375 37.6725 16.2769 37.2714V34.4288H13.5333C12.8699 34.4288 12.3723 34.332 12.0337 34.1314C11.695 33.9308 11.5292 33.5919 11.5292 33.1147C11.5292 32.7274 11.6674 32.4023 11.9507 32.1465C12.2341 31.8906 12.6142 31.766 13.1049 31.766H17.127C17.6176 31.766 18.0392 31.8076 18.3777 31.8974C18.7164 31.9874 18.9928 32.1811 19.2071 32.4854C19.4283 32.7966 19.5319 33.253 19.5319 33.8617Z" fill="#242828"/>
<path id="Vector_3" d="M26.2906 33.4882H25.0466V39.111C25.0466 39.8511 24.8808 40.3974 24.556 40.7502C24.2312 41.1029 23.8027 41.2758 23.2775 41.2758C22.7108 41.2758 22.2754 41.0961 21.9645 40.7294C21.6534 40.3629 21.5015 39.8234 21.5015 39.118V25.6453C21.5015 24.8844 21.6742 24.3312 22.0128 23.9854C22.3515 23.6465 22.9043 23.4735 23.6714 23.4735H29.435C30.2297 23.4735 30.907 23.5081 31.4737 23.5773C32.0404 23.6465 32.5448 23.7848 33.0009 23.9923C33.5469 24.2205 34.0376 24.5525 34.4591 24.9812C34.8807 25.4101 35.1985 25.9081 35.4197 26.4821C35.6409 27.0492 35.7445 27.6509 35.7445 28.2941C35.7445 29.6013 35.3782 30.6456 34.6388 31.4202C33.9063 32.2018 32.7867 32.7551 31.294 33.0801C31.9229 33.4121 32.5241 33.9101 33.0977 34.5602C33.6713 35.2103 34.1827 35.9088 34.6319 36.642C35.0811 37.3751 35.4336 38.046 35.6824 38.6339C35.9312 39.2286 36.0555 39.6367 36.0555 39.858C36.0555 40.0863 35.9795 40.3145 35.8343 40.5427C35.6892 40.7709 35.4888 40.9508 35.2331 41.0822C34.9775 41.2136 34.6872 41.2758 34.3485 41.2758C33.9478 41.2758 33.616 41.179 33.3465 40.9923C33.0769 40.8055 32.842 40.5704 32.6485 40.2799C32.455 39.9963 32.1924 39.5745 31.8538 39.0142L30.4371 36.6489C29.9256 35.7844 29.4695 35.1204 29.0688 34.6639C28.6679 34.2075 28.2602 33.9032 27.8455 33.7303C27.4378 33.5712 26.9126 33.4882 26.2906 33.4882ZM28.3154 26.1363H25.0466V30.9431H28.2187C29.0688 30.9431 29.7874 30.867 30.368 30.7217C30.9485 30.5765 31.3907 30.3206 31.6948 29.9679C31.9989 29.6151 32.1509 29.1241 32.1509 28.5086C32.1509 28.0244 32.0265 27.5956 31.7777 27.2221C31.5289 26.8487 31.1904 26.5789 30.755 26.3922C30.3472 26.2193 29.5318 26.1363 28.3154 26.1363Z" fill="#242828"/>
<path id="Vector_4" d="M49.2415 26.2054H41.2595V30.5004H48.6057C49.1447 30.5004 49.5524 30.6249 49.8151 30.867C50.0846 31.1091 50.2159 31.4271 50.2159 31.8283C50.2159 32.2294 50.0846 32.5476 49.822 32.8035C49.5594 33.0525 49.1516 33.1769 48.6057 33.1769H41.2595V38.1567H49.5179C50.0776 38.1567 50.4924 38.2881 50.7757 38.5439C51.059 38.7999 51.1972 39.1456 51.1972 39.5745C51.1972 39.9894 51.059 40.3214 50.7757 40.5842C50.4924 40.8401 50.0708 40.9715 49.5179 40.9715H39.8912C39.1171 40.9715 38.5643 40.7986 38.2257 40.4597C37.887 40.1208 37.7212 39.5675 37.7212 38.7999V25.6453C37.7212 25.1335 37.7972 24.7185 37.9492 24.4004C38.1013 24.0752 38.3363 23.8401 38.661 23.6949C38.9859 23.5497 39.3937 23.4735 39.8981 23.4735H49.2415C49.8081 23.4735 50.2228 23.598 50.4992 23.847C50.7757 24.0961 50.9139 24.428 50.9139 24.8291C50.9139 25.2441 50.7757 25.5761 50.4992 25.825C50.2297 26.081 49.8081 26.2054 49.2415 26.2054Z" fill="#242828"/>
<path id="Vector_5" d="M64.155 26.2054H56.1731V30.5004H63.5192C64.0583 30.5004 64.466 30.6249 64.7286 30.867C64.9981 31.1091 65.1294 31.4271 65.1294 31.8283C65.1294 32.2294 64.9981 32.5476 64.7355 32.8035C64.4729 33.0525 64.0651 33.1769 63.5192 33.1769H56.1731V38.1567H64.4314C64.9912 38.1567 65.4058 38.2881 65.6891 38.5439C65.9725 38.7999 66.1108 39.1456 66.1108 39.5745C66.1108 39.9894 65.9725 40.3214 65.6891 40.5842C65.4058 40.8401 64.9842 40.9715 64.4314 40.9715H54.8047C54.0307 40.9715 53.4779 40.7986 53.1392 40.4597C52.8006 40.1208 52.6348 39.5675 52.6348 38.7999V25.6453C52.6348 25.1335 52.7108 24.7185 52.8628 24.4004C53.0148 24.0752 53.2498 23.8401 53.5746 23.6949C53.8994 23.5497 54.3071 23.4735 54.8116 23.4735H64.1619C64.7286 23.4735 65.1432 23.598 65.4196 23.847C65.6961 24.0961 65.8343 24.428 65.8343 24.8291C65.8343 25.2441 65.6961 25.5761 65.4196 25.825C65.1432 26.081 64.7217 26.2054 64.155 26.2054Z" fill="#242828"/>
<path id="Vector_6" d="M72.1647 25.2994L78.9787 35.6184V25.2026C78.9787 24.5248 79.1239 24.0199 79.4141 23.681C79.7044 23.3422 80.0984 23.1762 80.589 23.1762C81.1003 23.1762 81.5012 23.3422 81.7915 23.681C82.0886 24.0199 82.2337 24.5248 82.2337 25.2026V38.9658C82.2337 40.5012 81.5979 41.2689 80.3264 41.2689C80.0085 41.2689 79.7251 41.2205 79.4694 41.1306C79.2138 41.0407 78.9787 40.8954 78.7507 40.6948C78.5296 40.4943 78.3223 40.266 78.1287 39.9963C77.9353 39.7266 77.7486 39.4569 77.5552 39.1802L70.907 28.9858V39.2425C70.907 39.9134 70.755 40.4183 70.444 40.7572C70.133 41.096 69.7391 41.2689 69.2484 41.2689C68.7439 41.2689 68.3431 41.096 68.046 40.7502C67.7418 40.4044 67.5898 39.8995 67.5898 39.2425V25.7421C67.5898 25.168 67.652 24.7185 67.7833 24.3934C67.9354 24.0337 68.1842 23.7433 68.5366 23.5151C68.8891 23.2868 69.2622 23.1762 69.67 23.1762C69.9879 23.1762 70.2574 23.2315 70.4855 23.3283C70.7135 23.432 70.9139 23.5704 71.0798 23.7433C71.2525 23.9162 71.4253 24.1444 71.605 24.4211C71.7916 24.7046 71.9713 24.9951 72.1647 25.2994Z" fill="#242828"/>
<path id="Vector_7" d="M23.2224 58.8983L20.3959 48.4064L17.5348 58.8983C17.3137 59.6936 17.134 60.2677 17.0027 60.6135C16.8713 60.9593 16.6433 61.2705 16.3185 61.5472C15.9937 61.8238 15.5583 61.9622 15.0193 61.9622C14.5839 61.9622 14.2245 61.8791 13.9412 61.7201C13.6578 61.5541 13.4298 61.3259 13.2571 61.0285C13.0842 60.731 12.9392 60.3784 12.8286 59.9634C12.718 59.5553 12.6212 59.175 12.5314 58.8222L9.62194 47.037C9.44922 46.3523 9.35938 45.8336 9.35938 45.474C9.35938 45.0175 9.51833 44.6371 9.83623 44.3259C10.1541 44.0146 10.548 43.8625 11.0179 43.8625C11.6607 43.8625 12.096 44.0699 12.3172 44.4849C12.5383 44.8999 12.7318 45.5016 12.9046 46.2901L15.1921 56.5122L17.7559 46.9471C17.9495 46.214 18.1153 45.6607 18.2674 45.2734C18.4194 44.893 18.6681 44.561 19.0068 44.2844C19.3454 44.0077 19.8154 43.8694 20.4027 43.8694C20.9971 43.8694 21.4601 44.0146 21.7918 44.3051C22.1236 44.5956 22.3516 44.9137 22.476 45.2526C22.6004 45.5915 22.7731 46.1586 22.9874 46.9471L25.5789 56.5122L27.8664 46.2901C27.977 45.7575 28.0806 45.3356 28.1843 45.0383C28.2811 44.734 28.4539 44.4642 28.6957 44.2291C28.9376 43.987 29.29 43.8694 29.7531 43.8694C30.2161 43.8694 30.6031 44.0216 30.9279 44.3259C31.2527 44.6302 31.4116 45.0175 31.4116 45.4809C31.4116 45.8059 31.3218 46.3315 31.149 47.0439L28.2327 58.8083C28.0323 59.6037 27.8664 60.1847 27.7351 60.5582C27.6038 60.9316 27.3827 61.2498 27.0648 61.5334C26.7538 61.81 26.3046 61.9483 25.7379 61.9483C25.1989 61.9483 24.7635 61.81 24.4386 61.5402C24.1138 61.2705 23.8858 60.9662 23.7614 60.6273C23.6301 60.2953 23.4504 59.7144 23.2224 58.8983Z" fill="#242828"/>
<path id="Vector_8" d="M51.2938 46.1794L55.2536 57.9162L59.2274 46.0964C59.4347 45.474 59.5868 45.0451 59.6904 44.8031C59.7941 44.561 59.9668 44.3397 60.2017 44.146C60.4437 43.9524 60.7684 43.8556 61.1832 43.8556C61.4872 43.8556 61.7636 43.9316 62.0263 44.0838C62.2819 44.2359 62.4893 44.4365 62.6344 44.6855C62.7795 44.9345 62.8555 45.1904 62.8555 45.4463C62.8555 45.6192 62.8348 45.8129 62.7864 46.0134C62.7381 46.214 62.6758 46.4146 62.6067 46.6082C62.5376 46.8018 62.4616 47.0024 62.3925 47.2099L58.1562 58.6424C58.0042 59.0781 57.8521 59.4931 57.7001 59.8873C57.548 60.2815 57.3752 60.6274 57.1749 60.9248C56.9745 61.2221 56.7118 61.4711 56.3801 61.6578C56.0484 61.8515 55.6476 61.9415 55.1708 61.9415C54.6939 61.9415 54.293 61.8445 53.9614 61.6578C53.6296 61.4711 53.3671 61.2221 53.1597 60.9178C52.9593 60.6135 52.7796 60.2607 52.6276 59.8735C52.4756 59.4861 52.3235 59.0712 52.1715 58.6286L48.0112 47.286C47.9421 47.0785 47.866 46.8779 47.79 46.6774C47.714 46.4768 47.6518 46.2624 47.5965 46.0342C47.5412 45.8059 47.5205 45.6054 47.5205 45.4463C47.5205 45.0383 47.6863 44.6717 48.0112 44.3328C48.336 44.0008 48.7437 43.8279 49.2413 43.8279C49.8425 43.8279 50.271 44.0146 50.5267 44.3812C50.7755 44.7754 51.0312 45.3702 51.2938 46.1794Z" fill="#242828"/>
<path id="Vector_9" d="M37.2375 54.8108H42.462L39.822 47.5903L37.2375 54.8108ZM44.2519 59.6729L43.4157 57.4735H36.3114L35.4752 59.7213C35.1504 60.5996 34.8739 61.1876 34.639 61.4919C34.4109 61.7962 34.0308 61.9483 33.5056 61.9483C33.0634 61.9483 32.6695 61.7823 32.3239 61.4573C31.9852 61.1323 31.8125 60.7588 31.8125 60.3438C31.8125 60.1017 31.854 59.8596 31.93 59.6037C32.006 59.3478 32.1373 58.9951 32.3239 58.5386L36.7952 47.1753C36.9196 46.8503 37.0785 46.4561 37.2513 45.9996C37.4309 45.5431 37.6245 45.1627 37.8249 44.8584C38.0252 44.5541 38.2948 44.312 38.6265 44.1253C38.9582 43.9385 39.3659 43.8417 39.8498 43.8417C40.3404 43.8417 40.755 43.9385 41.0868 44.1253C41.4184 44.312 41.6811 44.5541 41.8884 44.8446C42.0888 45.142 42.2615 45.4532 42.3998 45.7921C42.5381 46.131 42.7177 46.5806 42.9319 47.1477L47.4999 58.4418C47.8593 59.2994 48.039 59.9288 48.039 60.3161C48.039 60.7242 47.8732 61.0907 47.5345 61.4296C47.1959 61.7685 46.7881 61.9345 46.3113 61.9345C46.0349 61.9345 45.793 61.8861 45.5926 61.7823C45.3922 61.6855 45.2263 61.5472 45.0881 61.3742C44.9498 61.2014 44.8047 60.9385 44.6527 60.5859C44.5007 60.2539 44.3694 59.9426 44.2519 59.6729Z" fill="#242828"/>
<g id="Mask group">
<mask id="mask0_51_539" style="mask-type:alpha" maskUnits="userSpaceOnUse" x="9" y="43" width="71" height="19">
<g id="Group">
<path id="Vector_10" d="M37.2375 54.8108H42.462L39.822 47.5903L37.2375 54.8108ZM44.2519 59.6729L43.4157 57.4736H36.3114L35.4752 59.7213C35.1504 60.5996 34.8739 61.1876 34.639 61.4919C34.4109 61.7962 34.0308 61.9483 33.5056 61.9483C33.0634 61.9483 32.6695 61.7823 32.3239 61.4573C31.9853 61.1323 31.8125 60.7588 31.8125 60.3438C31.8125 60.1017 31.854 59.8596 31.93 59.6038C32.006 59.3478 32.1373 58.9951 32.3239 58.5386L36.7952 47.1753C36.9196 46.8503 37.0785 46.4561 37.2513 45.9996C37.4309 45.5431 37.6245 45.1627 37.8249 44.8584C38.0253 44.5541 38.2948 44.312 38.6265 44.1253C38.9582 43.9385 39.3659 43.8417 39.8498 43.8417C40.3404 43.8417 40.755 43.9385 41.0868 44.1253C41.4184 44.312 41.6811 44.5541 41.8884 44.8446C42.0888 45.142 42.2615 45.4532 42.3998 45.7921C42.5381 46.131 42.7177 46.5806 42.9319 47.1477L47.4999 58.4418C47.8593 59.2994 48.039 59.9288 48.039 60.3161C48.039 60.7242 47.8732 61.0907 47.5345 61.4296C47.1959 61.7685 46.7881 61.9345 46.3113 61.9345C46.0349 61.9345 45.793 61.8861 45.5926 61.7823C45.3922 61.6855 45.2263 61.5472 45.0881 61.3742C44.9498 61.2014 44.8047 60.9385 44.6527 60.5859C44.5007 60.2539 44.3694 59.9427 44.2519 59.6729Z" fill="#242828"/>
<path id="Vector_11" d="M77.638 45.799H69.656V50.1009H77.0022C77.5412 50.1009 77.9489 50.2254 78.2116 50.4675C78.4811 50.7096 78.6123 51.0276 78.6123 51.4288C78.6123 51.8299 78.4811 52.1481 78.2184 52.404C77.9559 52.653 77.5481 52.7774 77.0022 52.7774H69.656V57.7572H77.9144C78.4741 57.7572 78.8888 57.8886 79.1721 58.1444C79.4554 58.4004 79.5937 58.7461 79.5937 59.175C79.5937 59.5899 79.4554 59.9219 79.1721 60.1847C78.8888 60.4406 78.4672 60.572 77.9144 60.572H68.2876C67.5136 60.572 66.9608 60.3991 66.6222 60.0602C66.2835 59.7213 66.1177 59.168 66.1177 58.4004V45.2388C66.1177 44.727 66.1937 44.312 66.3457 43.9939C66.4978 43.6688 66.7327 43.4337 67.0575 43.2885C67.3824 43.1432 67.7901 43.0671 68.2946 43.0671H77.6449C78.2116 43.0671 78.6262 43.1916 78.9026 43.4406C79.179 43.6896 79.3172 44.0216 79.3172 44.4227C79.3172 44.8377 79.179 45.1697 78.9026 45.4186C78.6193 45.6745 78.2046 45.799 77.638 45.799Z" fill="#242828"/>
<path id="Vector_12" d="M23.2224 58.8983L20.3959 48.4064L17.5348 58.8983C17.3137 59.6936 17.134 60.2677 17.0027 60.6135C16.8713 60.9593 16.6433 61.2706 16.3185 61.5472C15.9937 61.8238 15.5583 61.9622 15.0193 61.9622C14.5839 61.9622 14.2245 61.8792 13.9412 61.7201C13.6578 61.5541 13.4298 61.3259 13.2571 61.0285C13.0842 60.7311 12.9392 60.3784 12.8286 59.9634C12.718 59.5553 12.6212 59.175 12.5314 58.8222L9.62194 47.0371C9.44922 46.3523 9.35938 45.8336 9.35938 45.474C9.35938 45.0175 9.51833 44.6371 9.83623 44.3259C10.1541 44.0146 10.548 43.8625 11.0179 43.8625C11.6607 43.8625 12.096 44.07 12.3172 44.4849C12.5383 44.8999 12.7318 45.5016 12.9046 46.2901L15.1921 56.5122L17.7559 46.9471C17.9495 46.214 18.1153 45.6607 18.2674 45.2734C18.4194 44.893 18.6681 44.561 19.0068 44.2844C19.3454 44.0077 19.8154 43.8694 20.4027 43.8694C20.9971 43.8694 21.4601 44.0146 21.7918 44.3052C22.1236 44.5956 22.3516 44.9138 22.476 45.2526C22.6004 45.5915 22.7731 46.1587 22.9874 46.9471L25.5789 56.5122L27.8664 46.2901C27.977 45.7575 28.0806 45.3356 28.1843 45.0383C28.2811 44.734 28.4539 44.4642 28.6957 44.2291C28.9376 43.987 29.29 43.8694 29.7531 43.8694C30.2161 43.8694 30.6031 44.0216 30.9279 44.3259C31.2527 44.6302 31.4116 45.0175 31.4116 45.4809C31.4116 45.8059 31.3218 46.3316 31.149 47.0439L28.2327 58.8084C28.0323 59.6037 27.8664 60.1847 27.7351 60.5582C27.6038 60.9317 27.3827 61.2498 27.0648 61.5334C26.7538 61.8101 26.3046 61.9483 25.7379 61.9483C25.1989 61.9483 24.7635 61.8101 24.4386 61.5403C24.1138 61.2706 23.8858 60.9663 23.7614 60.6274C23.6301 60.2954 23.4504 59.7144 23.2224 58.8983Z" fill="#242828"/>
<path id="Vector_13" d="M51.2938 46.1794L55.2536 57.9162L59.2274 46.0964C59.4347 45.474 59.5868 45.0452 59.6904 44.8031C59.7941 44.561 59.9668 44.3397 60.2017 44.146C60.4437 43.9524 60.7684 43.8556 61.1832 43.8556C61.4872 43.8556 61.7636 43.9317 62.0263 44.0838C62.2819 44.236 62.4893 44.4366 62.6344 44.6855C62.7795 44.9345 62.8555 45.1904 62.8555 45.4463C62.8555 45.6193 62.8348 45.8129 62.7864 46.0134C62.7381 46.214 62.6758 46.4146 62.6067 46.6082C62.5376 46.8019 62.4616 47.0025 62.3925 47.2099L58.1562 58.6424C58.0042 59.0782 57.8521 59.4931 57.7001 59.8874C57.548 60.2816 57.3752 60.6274 57.1749 60.9248C56.9745 61.2221 56.7118 61.4712 56.3801 61.6579C56.0484 61.8515 55.6476 61.9415 55.1708 61.9415C54.6939 61.9415 54.293 61.8446 53.9614 61.6579C53.6296 61.4712 53.3671 61.2221 53.1597 60.9178C52.9593 60.6135 52.7796 60.2608 52.6276 59.8735C52.4756 59.4862 52.3235 59.0712 52.1715 58.6286L48.0112 47.286C47.9421 47.0785 47.866 46.8779 47.79 46.6774C47.714 46.4768 47.6518 46.2624 47.5965 46.0342C47.5412 45.8059 47.5205 45.6054 47.5205 45.4463C47.5205 45.0383 47.6863 44.6717 48.0112 44.3328C48.336 44.0009 48.7437 43.8279 49.2413 43.8279C49.8425 43.8279 50.271 44.0146 50.5267 44.3812C50.7755 44.7755 51.0312 45.3702 51.2938 46.1794Z" fill="#242828"/>
</g>
</mask>
<g mask="url(#mask0_51_539)">
<g id="Group_2">
<path id="Vector_14" d="M-9 64.635C-6.03374 64.8079 -2.90677 65.0777 0.36995 65.4649C16.5614 67.4084 15.0836 69.9121 25.8243 70.8388C50.9787 73.0106 63.2936 59.6485 90.3328 62.3665C95.0124 62.8368 98.7069 63.646 100.956 64.2132M-8.95563 66.0872C-5.98935 66.2601 -2.86238 66.5298 0.414338 66.9172C16.6058 68.8606 15.128 71.3643 25.8687 72.291C51.0231 74.4627 63.338 61.1006 90.3772 63.8187C95.0568 64.289 98.7513 65.0982 101 65.6653M-8.95563 67.5322C-5.98935 67.7051 -2.86238 67.9748 0.414338 68.3622C16.6058 70.3056 15.128 72.8093 25.8687 73.736C51.0231 75.9077 63.338 62.5456 90.3772 65.2637C95.0568 65.734 98.7513 66.5432 101 67.1103M-8.95563 68.5522C-5.98935 68.7251 -2.86238 68.9948 0.414338 69.3822C16.6058 71.3256 15.128 73.8293 25.8687 74.756C51.0231 76.9277 63.338 63.5656 90.3772 66.2837C95.0568 66.754 98.7513 67.5632 101 68.1303M-8.95563 69.2322C-5.98935 69.4051 -2.86238 69.6748 0.414338 70.0622C16.6058 72.0056 15.128 74.5093 25.8687 75.436C51.0231 77.6077 63.338 64.2456 90.3772 66.9637C95.0568 67.434 98.7513 68.2432 101 68.8103M-8.95563 70.6772C-5.98935 70.8501 -2.86238 71.1198 0.414338 71.5072C16.6058 73.4506 15.128 75.9543 25.8687 76.881C51.0231 79.0527 63.338 65.6906 90.3772 68.4087C95.0568 68.879 98.7513 69.6882 101 70.2553M-8.95563 72.0372C-5.98935 72.2101 -2.86238 72.4798 0.414338 72.8672C16.6058 74.8106 15.128 77.3143 25.8687 78.241C51.0231 80.4127 63.338 67.0506 90.3772 69.7687C95.0568 70.239 98.7513 71.0482 101 71.6153M-8.95563 73.1422C-5.98935 73.3151 -2.86238 73.5848 0.414338 73.9722C16.6058 75.9156 15.128 78.4193 25.8687 79.346C51.0231 81.5177 63.338 68.1556 90.3772 70.8737C95.0568 71.344 98.7513 72.1532 101 72.7203M-8.95563 73.8222C-5.98935 73.9951 -2.86238 74.2648 0.414338 74.6522C16.6058 76.5956 15.128 79.0993 25.8687 80.026C51.0231 82.1977 63.338 68.8356 90.3772 71.5537C95.0568 72.024 98.7513 72.8332 101 73.4003M-8.95563 75.1822C-5.98935 75.3551 -2.86238 75.6248 0.414338 76.0122C16.6058 77.9556 15.128 80.4593 25.8687 81.386C51.0231 83.5577 63.338 70.1956 90.3772 72.9137C95.0568 73.384 98.7513 74.1932 101 74.7603" stroke="#4AFFDC" stroke-width="29" stroke-miterlimit="10" stroke-linecap="round"/>
</g>
</g>
</g>
</g>
</svg>
