<svg width="57" height="33" viewBox="0 0 57 33" fill="none" xmlns="http://www.w3.org/2000/svg">
<g clip-path="url(#clip0_165_1528)">
<path d="M52.0633 19.2511H46.7106V22.1865H51.6369C51.9983 22.1865 52.2718 22.2714 52.4479 22.4366C52.6287 22.6018 52.7167 22.8189 52.7167 23.0926C52.7167 23.3663 52.6287 23.5834 52.4525 23.758C52.2765 23.9279 52.003 24.0128 51.6369 24.0128H46.7106V27.4108H52.2486C52.624 27.4108 52.902 27.5004 53.0921 27.675C53.282 27.8497 53.3747 28.0856 53.3747 28.3782C53.3747 28.6614 53.282 28.8879 53.0921 29.0672C52.902 29.2418 52.6194 29.3315 52.2486 29.3315H45.793C45.274 29.3315 44.9033 29.2135 44.6762 28.9823C44.4491 28.751 44.3379 28.3735 44.3379 27.8497V18.8688C44.3379 18.5196 44.3888 18.2364 44.4908 18.0194C44.5928 17.7976 44.7503 17.6371 44.9681 17.538C45.186 17.4389 45.4594 17.387 45.7977 17.387H52.0679C52.4479 17.387 52.726 17.4719 52.9113 17.6418C53.0967 17.8117 53.1894 18.0383 53.1894 18.312C53.1894 18.5951 53.0967 18.8217 52.9113 18.9915C52.7213 19.1661 52.4432 19.2511 52.0633 19.2511Z" fill="#242828"/>
<path d="M13.0978 11.1056V13.3945C13.0978 13.6965 13.07 13.9419 13.0097 14.126C12.9495 14.31 12.8429 14.4704 12.6853 14.6168C12.5278 14.7631 12.3285 14.9046 12.0829 15.0415C11.3738 15.4332 10.6926 15.7163 10.0346 15.8957C9.37649 16.075 8.66279 16.1647 7.88885 16.1647C6.98979 16.1647 6.16488 16.0231 5.42342 15.74C4.68194 15.4568 4.05168 15.0462 3.528 14.5082C3.00432 13.9702 2.60578 13.319 2.32309 12.5544C2.0404 11.7899 1.90137 10.931 1.90137 9.98716C1.90137 9.05742 2.03576 8.20796 2.30919 7.43876C2.5826 6.66951 2.98115 6.01353 3.50946 5.47552C4.03777 4.93751 4.68194 4.52693 5.43732 4.23908C6.1927 3.95592 7.05471 3.80959 8.01396 3.80959C8.80182 3.80959 9.50161 3.91816 10.1087 4.1305C10.7158 4.34289 11.2117 4.6166 11.587 4.94221C11.967 5.26788 12.2497 5.6124 12.4443 5.97577C12.6344 6.33914 12.7317 6.66475 12.7317 6.94321C12.7317 7.24521 12.6205 7.50482 12.398 7.72192C12.1756 7.93425 11.9114 8.04283 11.6009 8.04283C11.4295 8.04283 11.2672 8.00032 11.1097 7.9201C10.9521 7.83989 10.8224 7.72662 10.7158 7.57558C10.4238 7.10839 10.1736 6.75442 9.96963 6.51847C9.76574 6.27777 9.49231 6.07959 9.1494 5.9144C8.80643 5.74922 8.36616 5.66901 7.83327 5.66901C7.2818 5.66901 6.79519 5.76337 6.35954 5.95686C5.92856 6.15035 5.55781 6.42881 5.25195 6.79693C4.94609 7.165 4.70974 7.61334 4.54754 8.14665C4.38534 8.6799 4.30192 9.26982 4.30192 9.91635C4.30192 11.318 4.61706 12.394 5.25195 13.1491C5.88222 13.9041 6.76737 14.2817 7.89814 14.2817C8.44961 14.2817 8.96404 14.2062 9.44597 14.0599C9.92796 13.9136 10.4192 13.706 10.915 13.4322V11.4926H9.07524C8.63036 11.4926 8.29668 11.4266 8.06959 11.2897C7.84251 11.1528 7.7313 10.9215 7.7313 10.5959C7.7313 10.3316 7.82398 10.1098 8.01396 9.93526C8.204 9.76062 8.4589 9.67565 8.78791 9.67565H11.4851C11.8141 9.67565 12.0968 9.70401 12.3238 9.76532C12.5509 9.82668 12.7363 9.95886 12.88 10.1665C13.0283 10.3788 13.0978 10.6903 13.0978 11.1056Z" fill="#242828"/>
<path d="M17.6305 10.8508H16.7963V14.6875C16.7963 15.1925 16.6851 15.5653 16.4673 15.806C16.2494 16.0467 15.9621 16.1647 15.6099 16.1647C15.2299 16.1647 14.9379 16.042 14.7294 15.7919C14.5209 15.5418 14.4189 15.1736 14.4189 14.6923V5.49913C14.4189 4.97997 14.5348 4.60245 14.7619 4.3665C14.9889 4.13526 15.3597 4.01723 15.8741 4.01723H19.7391C20.272 4.01723 20.7262 4.04083 21.1062 4.08805C21.4862 4.13526 21.8245 4.22962 22.1304 4.3712C22.4965 4.52693 22.8255 4.75348 23.1082 5.04603C23.3909 5.33864 23.604 5.67846 23.7524 6.07014C23.9007 6.45711 23.9701 6.8677 23.9701 7.30658C23.9701 8.19856 23.7245 8.91115 23.2287 9.43971C22.7375 9.97302 21.9867 10.3505 20.9857 10.5723C21.4074 10.7989 21.8106 11.1386 22.1952 11.5823C22.5799 12.0259 22.9228 12.5025 23.2241 13.0028C23.5253 13.503 23.7616 13.9608 23.9285 14.3619C24.0953 14.7678 24.1787 15.0462 24.1787 15.1972C24.1787 15.353 24.1278 15.5087 24.0304 15.6644C23.9331 15.8202 23.7987 15.9429 23.6272 16.0326C23.4558 16.1222 23.2611 16.1647 23.034 16.1647C22.7653 16.1647 22.5428 16.0986 22.3621 15.9712C22.1813 15.8438 22.0238 15.6833 21.894 15.4851C21.7642 15.2916 21.5882 15.0038 21.3611 14.6215L20.4111 13.0075C20.0681 12.4176 19.7622 11.9645 19.4935 11.653C19.2247 11.3416 18.9512 11.1339 18.6732 11.016C18.3998 10.9074 18.0476 10.8508 17.6305 10.8508ZM18.9883 5.83419H16.7963V9.11409H18.9234C19.4935 9.11409 19.9754 9.06218 20.3647 8.96306C20.754 8.86394 21.0506 8.68936 21.2545 8.44866C21.4584 8.20796 21.5604 7.87289 21.5604 7.45291C21.5604 7.12255 21.4769 6.82994 21.3101 6.57509C21.1432 6.32029 20.9162 6.1362 20.6242 6.00877C20.3508 5.8908 19.804 5.83419 18.9883 5.83419Z" fill="#242828"/>
<path d="M33.0208 5.88135H27.6681V8.81203H32.5944C32.9559 8.81203 33.2293 8.897 33.4054 9.06218C33.5862 9.22737 33.6742 9.4444 33.6742 9.71816C33.6742 9.99187 33.5862 10.209 33.41 10.3836C33.234 10.5535 32.9605 10.6384 32.5944 10.6384H27.6681V14.0363H33.2062C33.5815 14.0363 33.8596 14.126 34.0496 14.3006C34.2396 14.4752 34.3322 14.7112 34.3322 15.0038C34.3322 15.2869 34.2396 15.5134 34.0496 15.6927C33.8596 15.8674 33.5769 15.9571 33.2062 15.9571H26.7506C26.2315 15.9571 25.8608 15.8391 25.6337 15.6078C25.4066 15.3766 25.2954 14.999 25.2954 14.4752V5.49913C25.2954 5.14991 25.3464 4.86675 25.4483 4.64966C25.5503 4.42781 25.7079 4.26738 25.9257 4.16826C26.1435 4.0692 26.4169 4.01723 26.7552 4.01723H33.0208C33.4008 4.01723 33.6789 4.1022 33.8642 4.27208C34.0496 4.44202 34.1423 4.66851 34.1423 4.94221C34.1423 5.22537 34.0496 5.45192 33.8642 5.6218C33.6835 5.79644 33.4008 5.88135 33.0208 5.88135Z" fill="#242828"/>
<path d="M43.0217 5.88135H37.6691V8.81203H42.5954C42.9568 8.81203 43.2303 8.897 43.4063 9.06218C43.5871 9.22737 43.6752 9.4444 43.6752 9.71816C43.6752 9.99187 43.5871 10.209 43.411 10.3836C43.2349 10.5535 42.9615 10.6384 42.5954 10.6384H37.6691V14.0363H43.2071C43.5825 14.0363 43.8605 14.126 44.0505 14.3006C44.2405 14.4752 44.3332 14.7112 44.3332 15.0038C44.3332 15.2869 44.2405 15.5134 44.0505 15.6927C43.8605 15.8674 43.5778 15.9571 43.2071 15.9571H36.7515C36.2325 15.9571 35.8618 15.8391 35.6347 15.6078C35.4076 15.3766 35.2964 14.999 35.2964 14.4752V5.49913C35.2964 5.14991 35.3473 4.86675 35.4493 4.64966C35.5512 4.42781 35.7088 4.26738 35.9266 4.16826C36.1444 4.0692 36.4179 4.01723 36.7562 4.01723H43.0263C43.4063 4.01723 43.6844 4.1022 43.8698 4.27208C44.0552 4.44202 44.1479 4.66851 44.1479 4.94221C44.1479 5.22537 44.0552 5.45192 43.8698 5.6218C43.6844 5.79644 43.4017 5.88135 43.0217 5.88135Z" fill="#242828"/>
<path d="M48.3926 5.26311L52.962 12.3043V5.19705C52.962 4.73456 53.0593 4.39004 53.2539 4.15879C53.4486 3.9276 53.7128 3.81433 54.0418 3.81433C54.3847 3.81433 54.6535 3.9276 54.8482 4.15879C55.0474 4.39004 55.1447 4.73456 55.1447 5.19705V14.5884C55.1447 15.6361 54.7184 16.16 53.8657 16.16C53.6525 16.16 53.4625 16.1269 53.291 16.0656C53.1196 16.0042 52.962 15.9051 52.809 15.7682C52.6608 15.6314 52.5218 15.4756 52.392 15.2916C52.2622 15.1076 52.1371 14.9235 52.0073 14.7347L47.5491 7.77851V14.7772C47.5491 15.235 47.4472 15.5795 47.2387 15.8108C47.0301 16.0419 46.766 16.16 46.4369 16.16C46.0986 16.16 45.8298 16.042 45.6306 15.806C45.4266 15.5701 45.3247 15.2255 45.3247 14.7772V5.56518C45.3247 5.17344 45.3664 4.86674 45.4544 4.64489C45.5564 4.39949 45.7233 4.20131 45.9596 4.04558C46.196 3.88985 46.4462 3.81433 46.7196 3.81433C46.9328 3.81433 47.1135 3.85209 47.2665 3.91815C47.4194 3.98891 47.5538 4.08333 47.665 4.20131C47.7808 4.31928 47.8967 4.47501 48.0172 4.6638C48.1423 4.85729 48.2628 5.05547 48.3926 5.26311Z" fill="#242828"/>
<path d="M15.5727 28.1894L13.6773 21.0303L11.7587 28.1894C11.6104 28.7321 11.4899 29.1239 11.4019 29.3598C11.3138 29.5957 11.1609 29.8081 10.9431 29.9969C10.7253 30.1857 10.4333 30.2801 10.0718 30.2801C9.77987 30.2801 9.53888 30.2234 9.3489 30.1149C9.15886 30.0016 9.00593 29.8459 8.8901 29.643C8.77422 29.44 8.67692 29.1994 8.60277 28.9162C8.52861 28.6378 8.46374 28.3782 8.40349 28.1375L6.45244 20.0959C6.33662 19.6286 6.27637 19.2747 6.27637 19.0293C6.27637 18.7178 6.38296 18.4582 6.59614 18.2459C6.80932 18.0335 7.07346 17.9297 7.38855 17.9297C7.81959 17.9297 8.11154 18.0713 8.25985 18.3544C8.40811 18.6376 8.5379 19.0482 8.65372 19.5862L10.1877 26.5612L11.907 20.0345C12.0368 19.5343 12.148 19.1567 12.25 18.8924C12.3519 18.6329 12.5187 18.4063 12.7458 18.2176C12.9729 18.0288 13.2881 17.9344 13.6819 17.9344C14.0805 17.9344 14.391 18.0335 14.6134 18.2318C14.8359 18.4299 14.9888 18.647 15.0722 18.8783C15.1557 19.1095 15.2715 19.4965 15.4152 20.0345L17.153 26.5612L18.687 19.5862C18.7611 19.2228 18.8306 18.9349 18.9002 18.732C18.965 18.5244 19.0809 18.3403 19.2431 18.1798C19.4053 18.0147 19.6416 17.9344 19.9521 17.9344C20.2626 17.9344 20.5222 18.0383 20.7399 18.2459C20.9577 18.4535 21.0643 18.7178 21.0643 19.034C21.0643 19.2558 21.0041 19.6145 20.8883 20.1006L18.9326 28.1281C18.7982 28.6708 18.687 29.0672 18.5989 29.322C18.5108 29.5769 18.3626 29.794 18.1494 29.9875C17.9408 30.1763 17.6396 30.2706 17.2596 30.2706C16.8981 30.2706 16.6062 30.1763 16.3883 29.9922C16.1705 29.8081 16.0176 29.6005 15.9342 29.3693C15.8462 29.1427 15.7257 28.7463 15.5727 28.1894Z" fill="#242828"/>
<path d="M34.397 19.5106L37.0524 27.5193L39.7172 19.454C39.8562 19.0293 39.9582 18.7367 40.0277 18.5715C40.0972 18.4063 40.213 18.2553 40.3706 18.1232C40.5328 17.991 40.7506 17.925 41.0287 17.925C41.2326 17.925 41.418 17.9769 41.5941 18.0807C41.7655 18.1845 41.9046 18.3214 42.0019 18.4913C42.0992 18.6612 42.1502 18.8358 42.1502 19.0104C42.1502 19.1284 42.1363 19.2605 42.1038 19.3974C42.0714 19.5342 42.0297 19.6711 41.9833 19.8032C41.937 19.9354 41.886 20.0723 41.8397 20.2138L38.9989 28.0148C38.8969 28.3121 38.7949 28.5953 38.693 28.8643C38.591 29.1332 38.4752 29.3692 38.3408 29.5722C38.2064 29.7751 38.0303 29.945 37.8079 30.0724C37.5854 30.2046 37.3166 30.2659 36.9969 30.2659C36.6771 30.2659 36.4083 30.1998 36.1859 30.0724C35.9634 29.945 35.7873 29.7751 35.6483 29.5674C35.5139 29.3598 35.3934 29.1191 35.2914 28.8548C35.1895 28.5905 35.0875 28.3074 34.9856 28.0054L32.1958 20.2657C32.1494 20.1242 32.0984 19.9873 32.0474 19.8505C31.9965 19.7136 31.9548 19.5673 31.9177 19.4116C31.8806 19.2558 31.8667 19.119 31.8667 19.0104C31.8667 18.732 31.9779 18.4818 32.1958 18.2506C32.4136 18.0241 32.687 17.9061 33.0207 17.9061C33.4238 17.9061 33.7112 18.0335 33.8826 18.2836C34.0495 18.5527 34.2209 18.9585 34.397 19.5106Z" fill="#242828"/>
<path d="M24.9709 25.4003H28.4744L26.7041 20.4734L24.9709 25.4003ZM29.6747 28.718L29.114 27.2172H24.3499L23.7892 28.751C23.5713 29.3503 23.386 29.7515 23.2284 29.9592C23.0755 30.1668 22.8206 30.2706 22.4684 30.2706C22.1718 30.2706 21.9077 30.1574 21.6759 29.9356C21.4488 29.7138 21.333 29.4589 21.333 29.1758C21.333 29.0106 21.3608 28.8454 21.4118 28.6708C21.4627 28.4962 21.5508 28.2555 21.6759 27.944L24.6743 20.1902C24.7577 19.9684 24.8643 19.6994 24.9802 19.388C25.1007 19.0765 25.2304 18.8169 25.3648 18.6093C25.4992 18.4016 25.6799 18.2364 25.9024 18.109C26.1248 17.9816 26.3983 17.9155 26.7227 17.9155C27.0517 17.9155 27.3297 17.9816 27.5522 18.109C27.7746 18.2364 27.9508 18.4016 28.0898 18.5998C28.2242 18.8028 28.34 19.0152 28.4327 19.2464C28.5254 19.4776 28.6459 19.7844 28.7896 20.1714L31.8528 27.878C32.0938 28.4631 32.2143 28.8926 32.2143 29.1569C32.2143 29.4353 32.1031 29.6854 31.876 29.9167C31.6489 30.1479 31.3755 30.2612 31.0557 30.2612C30.8704 30.2612 30.7081 30.2282 30.5738 30.1574C30.4394 30.0913 30.3281 29.9969 30.2354 29.8789C30.1428 29.7609 30.0455 29.5816 29.9435 29.341C29.8416 29.1144 29.7535 28.902 29.6747 28.718Z" fill="#242828"/>
<mask id="mask0_165_1528" style="mask-type:alpha" maskUnits="userSpaceOnUse" x="6" y="17" width="48" height="14">
<path d="M24.9709 25.4003H28.4744L26.7041 20.4734L24.9709 25.4003ZM29.6747 28.718L29.114 27.2173H24.3499L23.7892 28.751C23.5713 29.3503 23.386 29.7515 23.2284 29.9592C23.0755 30.1668 22.8206 30.2706 22.4684 30.2706C22.1718 30.2706 21.9077 30.1574 21.6759 29.9356C21.4489 29.7138 21.333 29.4589 21.333 29.1758C21.333 29.0106 21.3608 28.8454 21.4118 28.6708C21.4627 28.4962 21.5508 28.2555 21.6759 27.944L24.6743 20.1902C24.7577 19.9684 24.8643 19.6994 24.9802 19.388C25.1007 19.0765 25.2304 18.8169 25.3648 18.6093C25.4993 18.4016 25.6799 18.2364 25.9024 18.109C26.1248 17.9816 26.3983 17.9155 26.7227 17.9155C27.0517 17.9155 27.3297 17.9816 27.5522 18.109C27.7746 18.2364 27.9508 18.4016 28.0898 18.5998C28.2242 18.8028 28.34 19.0152 28.4327 19.2464C28.5254 19.4776 28.6459 19.7844 28.7896 20.1714L31.8528 27.878C32.0938 28.4631 32.2143 28.8926 32.2143 29.1569C32.2143 29.4353 32.1031 29.6854 31.876 29.9167C31.6489 30.1479 31.3755 30.2612 31.0557 30.2612C30.8704 30.2612 30.7081 30.2282 30.5738 30.1574C30.4394 30.0913 30.3281 29.9969 30.2354 29.8789C30.1428 29.7609 30.0455 29.5816 29.9435 29.341C29.8416 29.1144 29.7535 28.9021 29.6747 28.718Z" fill="#242828"/>
<path d="M52.0633 19.2511H46.7106V22.1865H51.6369C51.9983 22.1865 52.2718 22.2714 52.4479 22.4366C52.6287 22.6018 52.7167 22.8189 52.7167 23.0926C52.7167 23.3663 52.6287 23.5834 52.4525 23.758C52.2765 23.9279 52.003 24.0128 51.6369 24.0128H46.7106V27.4108H52.2486C52.624 27.4108 52.902 27.5004 53.0921 27.675C53.282 27.8497 53.3747 28.0856 53.3747 28.3782C53.3747 28.6614 53.282 28.8879 53.0921 29.0672C52.902 29.2418 52.6194 29.3315 52.2486 29.3315H45.793C45.274 29.3315 44.9033 29.2135 44.6762 28.9823C44.4491 28.751 44.3379 28.3735 44.3379 27.8497V18.8688C44.3379 18.5196 44.3888 18.2364 44.4908 18.0194C44.5928 17.7976 44.7503 17.6371 44.9681 17.538C45.186 17.4389 45.4594 17.387 45.7977 17.387H52.0679C52.4479 17.387 52.726 17.4719 52.9113 17.6418C53.0967 17.8117 53.1894 18.0383 53.1894 18.312C53.1894 18.5951 53.0967 18.8217 52.9113 18.9915C52.7213 19.1661 52.4432 19.2511 52.0633 19.2511Z" fill="#242828"/>
<path d="M15.5727 28.1894L13.6773 21.0303L11.7587 28.1894C11.6104 28.7321 11.4899 29.1239 11.4019 29.3598C11.3138 29.5957 11.1609 29.8081 10.9431 29.9969C10.7253 30.1857 10.4333 30.2801 10.0718 30.2801C9.77987 30.2801 9.53888 30.2234 9.3489 30.1149C9.15886 30.0016 9.00593 29.8459 8.8901 29.643C8.77422 29.44 8.67692 29.1994 8.60277 28.9162C8.52861 28.6378 8.46374 28.3782 8.40349 28.1375L6.45244 20.0959C6.33662 19.6286 6.27637 19.2747 6.27637 19.0293C6.27637 18.7178 6.38296 18.4582 6.59614 18.2459C6.80932 18.0335 7.07346 17.9297 7.38855 17.9297C7.81959 17.9297 8.11154 18.0713 8.25985 18.3544C8.40811 18.6376 8.5379 19.0482 8.65372 19.5862L10.1877 26.5612L11.907 20.0345C12.0368 19.5343 12.148 19.1567 12.25 18.8924C12.3519 18.6329 12.5187 18.4063 12.7458 18.2176C12.9729 18.0288 13.2881 17.9344 13.6819 17.9344C14.0805 17.9344 14.391 18.0335 14.6134 18.2318C14.8359 18.4299 14.9888 18.647 15.0722 18.8783C15.1557 19.1095 15.2715 19.4965 15.4152 20.0345L17.153 26.5612L18.687 19.5862C18.7611 19.2228 18.8306 18.9349 18.9002 18.732C18.965 18.5244 19.0809 18.3403 19.2431 18.1798C19.4053 18.0147 19.6416 17.9344 19.9521 17.9344C20.2626 17.9344 20.5222 18.0383 20.7399 18.2459C20.9577 18.4535 21.0643 18.7178 21.0643 19.034C21.0643 19.2558 21.0041 19.6145 20.8883 20.1006L18.9326 28.1281C18.7982 28.6708 18.687 29.0672 18.5989 29.322C18.5108 29.5769 18.3626 29.794 18.1494 29.9875C17.9408 30.1763 17.6396 30.2706 17.2596 30.2706C16.8981 30.2706 16.6062 30.1763 16.3883 29.9922C16.1705 29.8081 16.0176 29.6005 15.9342 29.3693C15.8462 29.1427 15.7257 28.7463 15.5727 28.1894Z" fill="#242828"/>
<path d="M34.397 19.5107L37.0524 27.5193L39.7172 19.454C39.8562 19.0293 39.9582 18.7367 40.0277 18.5715C40.0972 18.4063 40.213 18.2554 40.3706 18.1232C40.5328 17.9911 40.7506 17.925 41.0287 17.925C41.2326 17.925 41.418 17.9769 41.5941 18.0807C41.7655 18.1845 41.9046 18.3214 42.0019 18.4913C42.0992 18.6612 42.1502 18.8358 42.1502 19.0104C42.1502 19.1284 42.1363 19.2606 42.1038 19.3974C42.0714 19.5343 42.0297 19.6711 41.9833 19.8033C41.937 19.9354 41.886 20.0723 41.8397 20.2138L38.9989 28.0148C38.8969 28.3122 38.7949 28.5953 38.693 28.8643C38.591 29.1333 38.4752 29.3693 38.3408 29.5722C38.2064 29.7751 38.0303 29.945 37.8079 30.0725C37.5854 30.2046 37.3166 30.2659 36.9969 30.2659C36.6771 30.2659 36.4083 30.1998 36.1859 30.0725C35.9634 29.945 35.7873 29.7751 35.6483 29.5674C35.5139 29.3598 35.3934 29.1191 35.2914 28.8549C35.1895 28.5906 35.0875 28.3074 34.9856 28.0054L32.1958 20.2658C32.1494 20.1242 32.0984 19.9873 32.0474 19.8505C31.9965 19.7136 31.9548 19.5673 31.9177 19.4116C31.8806 19.2558 31.8667 19.119 31.8667 19.0104C31.8667 18.732 31.9779 18.4818 32.1958 18.2506C32.4136 18.0241 32.687 17.9061 33.0207 17.9061C33.4238 17.9061 33.7112 18.0335 33.8826 18.2837C34.0495 18.5527 34.2209 18.9585 34.397 19.5107Z" fill="#242828"/>
</mask>
<g mask="url(#mask0_165_1528)">
<path d="M-5.79905 35.2346C-3.81549 35.4266 -1.72661 35.6886 0.459741 36.0345C11.2626 37.7642 10.2108 39.4345 17.3858 40.3347C34.1894 42.4439 42.7701 33.64 60.8234 36.1687C63.9478 36.6063 66.4038 37.2504 67.8969 37.6933M-5.80497 36.2259C-3.82139 36.4179 -1.73251 36.6799 0.45384 37.0259C11.2566 38.7556 10.2049 40.4259 17.3799 41.3261C34.1835 43.4352 42.7642 34.6313 60.8175 37.1601C63.9419 37.5976 66.3979 38.2417 67.8909 38.6846M-5.84043 37.2113C-3.85686 37.4033 -1.76798 37.6653 0.41837 38.0113C11.2212 39.7409 10.1694 41.4112 17.3444 42.3114C34.148 44.4206 42.7287 35.6166 60.782 38.1454C63.9065 38.583 66.3624 39.227 67.8555 39.6699M-5.86547 37.9068C-3.8819 38.0988 -1.79302 38.3608 0.393333 38.7068C11.1961 40.4364 10.1444 42.1068 17.3194 43.007C34.123 45.1161 42.7037 36.3122 60.757 38.8409C63.8814 39.2785 66.3374 39.9226 67.8304 40.3655M-5.88216 38.3705C-3.89859 38.5625 -1.80971 38.8245 0.376642 39.1705C11.1795 40.9001 10.1277 42.5704 17.3027 43.4707C34.1063 45.5798 42.687 36.7758 60.7403 39.3046C63.8647 39.7422 66.3207 40.3863 67.8137 40.8292M-5.91763 39.3559C-3.93406 39.5478 -1.84518 39.8098 0.341172 40.1558C11.144 41.8855 10.0922 43.5558 17.2672 44.456C34.0708 46.5651 42.6515 37.7612 60.7048 40.29C63.8293 40.7275 66.2852 41.3716 67.7783 41.8145M-5.95102 40.2832C-3.96744 40.4752 -1.87856 40.7372 0.307789 41.0832C11.1106 42.8128 10.0588 44.4832 17.2338 45.3834C34.0375 47.4925 42.6181 38.6886 60.6715 41.2173C63.7959 41.6549 66.2518 42.299 67.7449 42.7419M-5.97814 41.0367C-3.99457 41.2287 -1.90569 41.4907 0.280665 41.8367C11.0835 43.5663 10.0317 45.2367 17.2067 46.1369C34.0103 48.246 42.591 39.4421 60.6443 41.9708C63.7688 42.4084 66.2247 43.0525 67.7178 43.4954M-5.99483 41.5004C-4.01126 41.6924 -1.92238 41.9544 0.263974 42.3004C11.0668 44.03 10.015 45.7004 17.19 46.6006C33.9936 48.7097 42.5743 39.9057 60.6276 42.4345C63.7521 42.8721 66.208 43.5162 67.7011 43.9591M-6.02821 42.4278C-4.04464 42.6198 -1.95576 42.8818 0.230591 43.2278C11.0334 44.9574 9.98161 46.6277 17.1566 47.5279C33.9603 49.6371 42.5409 40.8331 60.5943 43.3619C63.7187 43.7995 66.1746 44.4435 67.6677 44.8864" stroke="#4AFFDC" stroke-width="29" stroke-miterlimit="10" stroke-linecap="round"/>
</g>
</g>
<defs>
<clipPath id="clip0_165_1528">
<rect width="57" height="33" fill="white"/>
</clipPath>
</defs>
</svg>
