<svg width="111" height="21" viewBox="0 0 111 21" fill="none" xmlns="http://www.w3.org/2000/svg">
<g id="plantees-vegan-apparel-webshop-logo.svg" clip-path="url(#clip0_51_421)">
<g id="Layer 2">
<g id="Layer 2_2">
<path id="Vector" opacity="0.11" d="M7.92301 9.80179C9.738 9.80896 11.5554 9.81973 13.3692 9.8987C14.3993 9.94297 15.4235 9.98843 16.4416 10.1631L16.2478 10.1224L16.7611 10.2421L16.5673 10.1978C16.7173 10.2288 16.8612 10.2841 16.9932 10.3617L16.6893 10.1428L16.7982 10.2337L15.7848 8.87215L15.3804 9.26578L15.6113 9.18682C15.3875 9.21158 15.1611 9.18076 14.9521 9.09708C14.8345 9.05539 14.7146 9.02024 14.5931 8.9918L14.44 8.96189C13.7724 8.90924 13.1056 8.85022 12.4396 8.78481L12.5592 8.80276C11.9765 8.59338 11.4178 8.39358 10.8004 8.31581C10.5282 8.25443 10.244 8.27313 9.98208 8.36965L9.62315 8.48929C9.38386 8.59937 9.13141 8.71781 8.98664 8.9559C8.9243 9.07171 8.86994 9.19163 8.82392 9.31484C8.77397 9.44066 8.76231 9.57843 8.79042 9.71086C8.75571 9.84284 8.77373 9.98316 8.84067 10.1021C8.96544 10.52 9.20703 10.8936 9.537 11.1789C9.7252 11.4079 9.94803 11.6061 10.1974 11.7663C10.5375 12.0555 10.912 12.3015 11.3125 12.4986C12.0688 12.9049 12.86 13.2425 13.6767 13.5072C14.2653 13.6998 14.8552 13.8661 15.3995 14.1712L15.232 14.0791L15.3924 14.2454L14.6996 13.1135L15.1782 14.0838L14.7307 12.6481L14.4771 12.9831L14.5728 12.8635C14.3892 12.9603 14.177 12.9883 13.9746 12.9424L13.843 12.9245C12.9764 12.877 12.1254 12.6744 11.3305 12.3263L10.6856 11.9877C9.92345 11.6467 9.11107 11.533 8.29271 11.4732C7.40016 11.4074 6.45378 11.3763 5.58636 11.6335C5.34463 11.7105 5.12421 11.8428 4.94268 12.02C4.83083 12.1267 4.73636 12.2502 4.66271 12.3861C4.57429 12.5724 4.53672 12.7788 4.55384 12.9843L4.79312 13.5658C4.91238 13.8461 5.11497 14.0829 5.3734 14.2442C6.49363 15.269 7.82267 16.0388 9.269 16.5006C10.5612 16.9122 11.9012 17.1407 13.2304 17.3848C14.3072 17.5822 15.3972 17.7437 16.4201 18.129L16.2382 18.0536L16.4775 18.1804L16.2119 17.9232L16.5972 18.324L15.7118 17.2089L16.3184 18.1565L15.7525 16.5916L15.4845 16.8237L15.6041 16.7686L15.2153 16.8536L15.3445 16.8428C15.0535 16.8551 14.763 16.8087 14.4903 16.7064L14.5908 16.7351C14.245 16.5892 13.898 16.4791 13.5391 16.3666C12.8882 16.1656 12.2481 15.9419 11.5937 15.7505L11.7133 15.7924C11.3891 15.6332 11.0194 15.3939 10.6736 15.3245C10.2824 15.2456 9.81099 15.2575 9.42334 15.242C8.0259 15.187 6.63325 15.2216 5.23581 15.2659C5.15779 15.2732 5.08519 15.309 5.03181 15.3663C4.97842 15.4237 4.94798 15.4987 4.94627 15.577C4.96422 15.711 5.23341 15.979 5.3734 15.9742C6.42507 15.9371 7.47913 15.8857 8.53199 15.9024C9.30888 15.9144 10.0858 15.9335 10.8627 15.9599L10.5994 15.8665C10.8842 16.0005 11.1634 16.1409 11.4369 16.2877C11.5412 16.3565 11.6554 16.409 11.7755 16.4432L12.4144 16.5999C12.8284 16.726 13.2396 16.8616 13.648 17.0067L13.5391 16.9625C13.8991 17.0968 14.2205 17.3179 14.4747 17.6061C14.7089 17.8706 14.9855 18.0942 15.2931 18.2678C15.5781 18.4879 15.9153 18.6305 16.2718 18.6817C16.5174 18.7416 16.7272 18.6431 16.9011 18.3862C17.1069 18.2546 16.7814 17.806 16.7408 17.7473L16.4369 17.3166C16.2638 17.0716 16.0692 16.8426 15.8554 16.6322C15.7356 16.5629 15.6113 16.5017 15.4833 16.4492C15.2787 16.3805 15.0691 16.3277 14.8564 16.2913C14.251 16.1549 13.6456 16.0328 13.033 15.9323C12.2613 15.8055 11.486 15.699 10.7131 15.5878C10.2959 15.5263 9.87799 15.4621 9.45923 15.3951C9.04207 15.2851 8.62811 15.1654 8.21733 15.0362L8.33697 15.0912C7.47075 14.6737 6.52676 14.2142 5.75028 13.6711L5.93094 13.8422C5.34388 13.0972 5.33352 12.5899 5.89983 12.3203L5.79813 12.3526C6.33534 12.2146 6.88639 12.1375 7.44084 12.1229C8.1587 12.1061 8.87657 12.1731 9.58605 12.227L9.46641 12.2078C10.0272 12.3355 10.5687 12.5367 11.0768 12.806L11.7229 13.165C11.8092 13.2148 11.9068 13.2416 12.0064 13.2427C12.4756 13.2555 12.9365 13.3698 13.3572 13.5777C13.8011 13.7775 14.1074 14.1604 14.5309 14.3865C14.7232 14.4663 14.9182 14.5401 15.116 14.6079C15.202 14.6375 15.2941 14.645 15.3838 14.6297C15.4735 14.6145 15.5579 14.5769 15.6293 14.5205C15.9284 14.4296 15.6209 13.8206 15.5635 13.6663C15.4807 13.4333 15.3848 13.2052 15.2763 12.9831C15.2268 12.8082 15.1154 12.6572 14.9628 12.5584C14.6587 12.4105 14.343 12.2876 14.0189 12.1911C13.6049 12.0714 13.1718 11.9649 12.7662 11.8202C12.2662 11.649 11.7825 11.4336 11.3209 11.1765L9.88516 10.1703C9.56611 9.61594 9.62992 9.26259 10.0766 9.11025L9.98088 9.1593C10.149 9.07967 10.3251 9.01792 10.5061 8.97505C10.6835 8.89974 10.8822 8.89208 11.0649 8.95351L10.9452 8.93676L11.3484 8.99898C11.6675 9.08911 11.9841 9.1908 12.2984 9.30407C13.0282 9.55771 12.8775 9.35073 14.038 9.50866L13.8849 9.47875C14.2033 9.55679 14.5088 9.68051 14.7918 9.84605C15.17 10.1817 15.5818 10.4776 16.0205 10.729C16.2943 10.8401 16.5864 10.8993 16.8819 10.9037C16.9858 10.8984 17.0869 10.8685 17.177 10.8165C17.2671 10.7645 17.3435 10.6919 17.4 10.6046C17.6249 10.3569 17.1966 9.94655 17.0578 9.76709C16.9016 9.55533 16.7343 9.35205 16.5565 9.1581C16.4521 8.99579 16.2949 8.87449 16.1114 8.81472H15.9152L16.1042 8.87933C15.8247 8.78499 15.5353 8.72316 15.2416 8.69508C14.6625 8.61612 14.0859 8.54672 13.5008 8.52399C13.0414 8.51522 12.5815 8.51242 12.1213 8.51562C11.5901 8.49169 11.0581 8.47254 10.5253 8.45819L8.5978 8.41631C7.87994 8.37483 7.16526 8.34173 6.45378 8.31701C6.43003 8.31796 6.40676 8.32402 6.38556 8.3348C6.36437 8.34557 6.34575 8.36079 6.33098 8.37942C6.31621 8.39805 6.30564 8.41965 6.29999 8.44274C6.29434 8.46584 6.29375 8.48988 6.29824 8.51322C6.35628 8.68828 6.47401 8.83735 6.63085 8.93437C6.88497 9.16028 7.15139 9.37198 7.42888 9.56848C7.56082 9.70223 7.73589 9.78489 7.92301 9.80179Z" fill="#ADD1C0"/>
<path id="Vector_2" opacity="0.11" d="M6.82474 9.01803C8.6194 8.98333 10.4141 9.01803 12.2087 9.0946C13.2424 9.13887 14.2702 9.17716 15.2931 9.34825L15.0897 9.30278L15.615 9.42243L15.4116 9.37457L15.6616 9.44516L14.1804 8.22479L15.5707 9.94766L14.7739 7.82758H14.7416L14.8612 7.8874L14.6339 7.69118L14.7272 7.78331C14.6219 7.63167 14.579 7.44527 14.6076 7.26286C14.6148 7.24661 14.6187 7.22903 14.6188 7.21123C14.6189 7.19343 14.6153 7.17581 14.6082 7.15948C14.6011 7.14316 14.5906 7.12849 14.5776 7.11642C14.5645 7.10435 14.549 7.09514 14.5322 7.08937C14.4992 7.05918 14.4573 7.04061 14.4128 7.03651C14.3683 7.0324 14.3236 7.04299 14.2857 7.06664L12.4803 7.82638L13.782 7.41839L12.107 7.77733L13.0414 7.69597C12.2302 7.72827 11.4215 7.75938 10.6103 7.78091C10.1449 7.79288 9.58133 7.83356 9.13506 8.00704C8.86204 8.10398 8.6236 8.27916 8.4495 8.51074C8.37526 8.60098 8.32047 8.70559 8.28856 8.818C8.25664 8.93042 8.2483 9.04821 8.26405 9.164C8.23489 9.33476 8.25091 9.51019 8.31052 9.67285C8.37012 9.83551 8.47125 9.97975 8.60384 10.0912C8.80035 10.3328 9.02807 10.5473 9.28103 10.7289C9.87135 11.1183 10.4869 11.468 11.1235 11.7758C11.5411 11.9768 11.9443 12.2077 12.3714 12.3848C12.9146 12.6109 13.4482 12.8634 13.9806 13.1027L13.8 12.995L14.0931 13.1709L12.9708 11.5664L13.9639 13.6267L13.7174 11.5485L13.6504 11.4133L13.6971 11.5844L13.666 11.2865L13.6552 11.4588L13.7545 11.0388C13.8083 10.8091 13.5056 10.8522 13.4075 10.8845L11.3425 11.5533L12.8165 11.4049L10.8173 11.4396H11.2037L10.2669 11.3738C9.98668 11.3157 9.7035 11.273 9.41862 11.2458C8.97474 11.1955 8.53086 11.1453 8.08578 11.1094C7.33818 11.0432 6.58611 11.0452 5.83887 11.1154C5.52252 11.1362 5.21073 11.2019 4.91283 11.3104C4.71739 11.3798 4.53529 11.4822 4.37443 11.6131L4.15309 11.8763L4.02148 12.3549C4.06456 12.6396 4.23086 12.8993 4.35649 13.1541C4.43109 13.3201 4.56448 13.4527 4.73097 13.5262C4.93432 13.7584 5.18974 13.9392 5.47635 14.0538C5.71564 14.1831 5.95493 14.3147 6.19422 14.4511C6.49661 14.6385 6.82194 14.7861 7.16213 14.8901L7.62755 15.0708L8.29636 15.4297L8.96756 15.7743C9.32649 15.8796 9.68542 15.9813 10.0444 16.0806C11.7708 16.5592 13.5978 16.6848 15.2907 17.2914L13.7354 15.8114L15.1125 17.7233L14.5681 15.5578C13.4279 15.4381 12.32 15.2933 11.1786 15.267L11.3987 15.2874C11.0174 15.1678 10.629 15.0719 10.2358 15.0002C9.80279 14.9309 9.36617 14.8865 8.92808 14.8674C7.52465 14.8124 6.11286 14.8674 4.71063 14.9225C4.21052 14.9416 4.96906 15.614 4.97863 15.6236C5.2921 15.8972 5.61673 16.1564 5.95254 16.4012C6.11332 16.5587 6.31746 16.6645 6.53879 16.7051C7.46483 16.6381 8.38609 16.6023 9.31333 16.5711L10.8424 16.4718L11.7864 16.4922C12.2338 16.5029 12.6622 16.5999 13.1024 16.6381C13.3669 16.6836 13.5966 16.5747 13.7928 16.3139C14.1118 16.136 14.4381 15.9657 14.7715 15.803L12.4145 15.754C12.7012 15.8987 12.9541 16.1026 13.1563 16.3522L13.0725 16.2529C13.2479 16.5089 13.441 16.7524 13.6504 16.9815L13.7473 17.0701C13.9258 17.2878 14.1528 17.4608 14.4102 17.575C14.6059 17.6939 14.8222 17.7751 15.0479 17.8142C15.1424 17.8454 15.2405 17.8643 15.3398 17.8705C15.4179 17.8829 15.498 17.8732 15.5709 17.8425C15.6438 17.8119 15.7067 17.7615 15.7526 17.697C15.7951 17.6524 15.8216 17.5949 15.8279 17.5336C15.8342 17.4723 15.8199 17.4107 15.7873 17.3584C15.6452 17.0551 15.4796 16.7635 15.2919 16.4862C15.1167 16.2009 14.9195 15.9297 14.7021 15.675C14.6685 15.6233 14.6184 15.5846 14.5599 15.565C14.5015 15.5455 14.4382 15.5463 14.3802 15.5673C14.3292 15.5768 14.2767 15.5754 14.2262 15.5633C14.1756 15.5511 14.1283 15.5284 14.0871 15.4967C13.8985 15.4272 13.7033 15.3771 13.5044 15.3472C13.1455 15.2622 12.777 15.1749 12.4121 15.0971C11.9587 15.0014 11.504 14.9117 11.0506 14.8184C10.432 14.6903 9.82182 14.5372 9.21044 14.3793L9.3911 14.457C8.94921 14.2632 8.51052 14.0606 8.07502 13.8492L8.46625 14.2333C8.15996 13.8345 7.85647 13.4305 7.55576 13.0213L7.85607 13.9988L7.69455 12.9723C7.69011 12.9493 7.68096 12.9275 7.66769 12.9082C7.65442 12.8889 7.6373 12.8725 7.61742 12.8602C7.59753 12.8478 7.57531 12.8397 7.55214 12.8364C7.52897 12.833 7.50536 12.8345 7.48278 12.8407L6.88456 13.0285L7.04967 13.0082L6.6022 12.9902L6.77568 13.0261L6.47059 12.8825L6.72065 13.0967C6.74338 12.977 6.72065 12.977 6.82833 12.8801L6.70868 12.9579C7.04249 12.8383 7.42655 12.8191 7.7795 12.7796C8.25807 12.7246 8.72827 12.6827 9.20326 12.648C9.77037 12.6061 10.3494 12.5918 10.9142 12.5284C11.3409 12.4558 11.7696 12.388 12.2003 12.325C12.5364 12.1448 12.8819 11.9826 13.2353 11.8392L11.1834 11.8991C11.8577 12.1869 12.463 12.6152 12.9589 13.1553C13.1276 13.3656 13.35 13.5264 13.6026 13.6207C13.7695 13.6889 13.9405 13.7464 14.1146 13.793C14.1964 13.8225 14.2856 13.8241 14.3683 13.7975C14.451 13.7709 14.5225 13.7175 14.5717 13.6459C14.6185 13.6048 14.6502 13.5492 14.6615 13.488C14.6728 13.4267 14.663 13.3635 14.6339 13.3085C14.554 13.082 14.4568 12.862 14.3432 12.6504C14.2151 12.3812 14.0728 12.118 13.9196 11.862C13.8386 11.6613 13.6973 11.4908 13.5152 11.3738C13.1826 11.2326 12.8919 11.0663 12.5736 10.8952L12.7495 11.0053C12.5102 10.7828 12.2709 10.5662 12.0316 10.3533L12.1812 10.4897L11.7289 10.0518L11.8629 10.2061C11.7904 10.029 11.7214 9.84995 11.656 9.66889L11.7086 9.85793L11.6069 9.42961C11.6021 9.40578 11.5918 9.3834 11.5769 9.36427C11.5619 9.34513 11.5426 9.32977 11.5207 9.31942C11.4987 9.30907 11.4746 9.30401 11.4503 9.30465C11.426 9.3053 11.4022 9.31162 11.3808 9.32312L10.9489 9.49661L11.1259 9.42721L10.9644 9.41286L11.0841 9.48823L10.9225 9.33389L10.9871 9.57318C11.0297 9.53948 11.059 9.49186 11.07 9.4387C11.0809 9.38553 11.0728 9.33021 11.047 9.28244L10.956 9.40209C11.1116 9.3303 11.2635 9.24655 11.4215 9.18075C11.7265 9.05033 12.0556 8.98334 12.3702 8.88044C12.5298 8.82541 12.6893 8.77635 12.8488 8.73328C13.0364 8.70281 13.213 8.62498 13.3621 8.50715C13.5368 8.40067 13.721 8.29897 13.8969 8.20445C14.0242 8.16954 14.1385 8.09796 14.2255 7.99862C14.3125 7.89928 14.3684 7.77656 14.3862 7.64572L12.4025 8.19967L13.514 8.70576L13.3944 8.64953C13.7533 8.94026 14.1003 9.24775 14.4389 9.55643C14.6496 9.7935 14.9334 9.9535 15.2453 10.0111C15.4512 10.0623 15.6624 10.0888 15.8746 10.09C15.965 10.0726 16.0499 10.0339 16.1223 9.97707C16.1947 9.92027 16.2525 9.84702 16.291 9.76341C16.327 9.71473 16.3456 9.65538 16.3439 9.59485C16.3421 9.53433 16.3201 9.47614 16.2814 9.42961C16.1029 9.15685 15.9028 8.89879 15.6832 8.6579C15.4745 8.40742 15.2461 8.17416 15 7.96038C14.9594 7.91537 14.9048 7.88543 14.8451 7.87543C14.7853 7.86544 14.724 7.87598 14.671 7.90534C14.6366 7.91707 14.6 7.92058 14.5641 7.9156C14.5281 7.91061 14.4938 7.89726 14.464 7.87663C14.2997 7.84593 14.134 7.82356 13.9675 7.80963C13.3908 7.73784 12.8177 7.66725 12.2374 7.64572C11.7764 7.63854 11.3162 7.63854 10.8567 7.64572C10.3255 7.62059 9.7943 7.60265 9.26308 7.58829L7.33562 7.54282C6.62812 7.49895 5.91983 7.46745 5.21074 7.44831C5.187 7.44857 5.16363 7.45428 5.14243 7.46498C5.12123 7.47567 5.10276 7.49108 5.08844 7.51003C5.07412 7.52897 5.06432 7.55094 5.05981 7.57425C5.05529 7.59756 5.05617 7.6216 5.06239 7.64452C5.13062 7.83221 5.25999 7.99149 5.42969 8.09677C5.7063 8.33598 5.99502 8.56081 6.29472 8.77037C6.43918 8.90921 6.62556 8.99629 6.82474 9.01803Z" fill="#ADD1C0"/>
<path id="Vector_3" opacity="0.11" d="M7.30799 7.93892C8.40991 7.93892 9.50943 7.9126 10.6102 7.92935C11.5673 7.94371 12.5245 7.96644 13.49 8.02387C14.0619 8.05857 14.6338 8.10164 15.2021 8.17342C15.6034 8.21154 15.9977 8.30329 16.3746 8.44621L16.2789 8.38998L16.5481 8.54671L16.4536 8.48809L16.5553 8.58859L16.377 8.23683L16.383 8.35648L16.4356 8.27153L16.2262 8.47612L16.4751 8.4498L15.287 8.19137L14.5464 7.77501C14.1556 7.53572 13.76 7.30282 13.3596 7.07629C13.1602 6.98115 12.971 6.8661 12.7949 6.73291C12.6421 6.61307 12.4718 6.51744 12.29 6.44936C11.933 6.33924 11.5665 6.26274 11.1952 6.22084C10.6797 6.1473 10.1568 6.14167 9.63985 6.20409C9.38435 6.2361 9.1358 6.30965 8.90404 6.42184C8.69227 6.52952 8.46016 6.6348 8.31659 6.8394C8.20282 6.98942 8.12689 7.16467 8.09524 7.35027C8.07909 7.53088 8.08391 7.71276 8.1096 7.89226C8.1778 8.34691 8.65039 8.84941 8.93993 9.20834C9.1864 9.51224 9.44722 9.80656 9.70326 10.0997C9.7734 10.247 9.89211 10.3657 10.0395 10.4359L10.7573 10.8128C11.277 11.0794 11.8124 11.3143 12.3605 11.5163C12.8295 11.6802 13.3177 11.7938 13.7963 11.9278C14.1921 12.024 14.5554 12.2234 14.8491 12.5057L14.6888 12.1815V12.3275L14.7833 12.1623L14.544 12.3071L14.8731 12.2844C13.7544 12.0726 12.6752 11.3859 11.8568 10.6094L11.5529 10.3139C11.3647 10.2118 11.1729 10.1192 10.9775 10.0363C10.8578 9.97885 10.7274 9.92381 10.6006 9.87236L9.88272 9.69529C9.20274 9.53928 8.51068 9.44161 7.81408 9.40336C7.00859 9.3513 6.19976 9.39468 5.40446 9.53258C5.13049 9.57747 4.86215 9.65168 4.60404 9.75392C4.34508 9.85816 4.13432 10.0553 4.013 10.3067L3.93164 10.8008C3.99044 10.9503 4.06209 11.0944 4.1458 11.2315C4.20913 11.3775 4.28731 11.5167 4.37911 11.6467L4.92349 12.1947C5.20178 12.4402 5.46059 12.707 5.69758 12.9927C5.99299 13.3733 6.37209 13.6807 6.80548 13.8912L7.69444 14.4954C8.5128 14.6725 9.33156 14.8476 10.1507 15.0206C11.2574 15.2862 12.3785 15.4717 13.5007 15.6859C14.014 15.7852 14.5369 15.8845 15.0418 16.0244C15.3911 16.1214 15.7596 16.2087 15.9989 16.4958L15.8625 16.1369L15.6567 16.3642L15.9905 16.2984C14.7127 16.1692 13.9841 15.0864 13.0461 14.3841C12.7941 14.2098 12.5284 14.0562 12.2517 13.9247C11.9686 13.7763 11.6717 13.656 11.3651 13.5658C11.0365 13.4592 10.7017 13.3729 10.3625 13.3073C9.99638 13.2511 9.62668 13.2212 9.25818 13.1961C8.67911 13.1578 8.10003 13.1686 7.51976 13.1757C6.60927 13.1877 5.69998 13.2236 4.79068 13.2631C4.74004 13.242 4.68323 13.2413 4.63209 13.2611C4.58094 13.2809 4.5394 13.3196 4.51612 13.3693C4.49283 13.419 4.4896 13.4757 4.50709 13.5277C4.52458 13.5796 4.56145 13.6229 4.61002 13.6483C4.81898 13.7953 5.04225 13.9207 5.27644 14.0228C5.50542 14.1388 5.74605 14.2303 5.9943 14.2956C7.01127 14.2166 8.02824 14.1652 9.04522 14.0946L10.0789 14.024C10.4379 14.024 10.7968 14.0324 11.1557 14.0396L10.9033 14.0061L11.5446 14.2453L11.3579 14.1472C12.2541 14.6737 13.0329 15.3509 13.8705 15.9634C14.367 16.3224 14.8814 16.643 15.4832 16.7926C15.8075 16.8739 16.0934 16.8859 16.3507 16.6358C16.5349 16.4576 16.4703 16.1824 16.3291 16.0041C16.0456 15.6536 15.5814 15.5004 15.1626 15.3939C14.3658 15.1905 13.551 15.0565 12.741 14.9154C12.1859 14.8232 11.6307 14.7383 11.0768 14.6402C10.6281 14.5612 10.1854 14.4535 9.73676 14.3698C9.4544 14.3219 9.17084 14.2776 8.88729 14.2406L8.02346 14.085L7.17159 13.4413C6.74661 13.188 6.3771 12.8516 6.08518 12.4522C5.79325 12.0527 5.58492 11.5985 5.47265 11.1167L5.48342 11.2459L5.60306 10.6836L5.56717 10.8116C5.60607 10.7454 5.65791 10.6878 5.71958 10.6422C5.78125 10.5966 5.85149 10.5638 5.9261 10.546L5.76698 10.6094L6.20966 10.4897L6.04575 10.5316C6.33478 10.507 6.62154 10.4606 6.90359 10.3928L6.73729 10.4311C7.21586 10.3605 7.70401 10.2959 8.19216 10.254C8.73773 10.2086 9.27613 10.2002 9.8241 10.2074L9.59318 10.1906C9.72824 10.2123 9.86143 10.2443 9.9916 10.2863L9.81572 10.2122C10.1788 10.3614 10.5335 10.5304 10.8782 10.7182C11.2211 10.9719 11.5685 11.2204 11.9203 11.4636L12.7578 11.9889C13.1798 12.2577 13.6241 12.4898 14.0858 12.6828C14.4065 12.7905 14.9377 12.9664 15.1817 12.6026C15.3887 12.2928 15.1746 11.9673 14.9197 11.7735C14.6063 11.5342 14.2246 11.4517 13.8513 11.3655C13.1945 11.2438 12.5559 11.0383 11.9514 10.7541C11.1743 10.4523 10.481 9.96854 9.92938 9.34354L9.98921 9.4249C9.75864 9.12636 9.59538 8.78147 9.51063 8.41391C9.39448 8.1273 9.36293 7.8134 9.4197 7.5094L9.34911 7.62904L9.56088 7.27011L9.45559 7.3742L9.7906 7.09783L9.67095 7.18397C9.90307 7.06684 10.1429 6.96571 10.3888 6.88127C10.6615 6.80368 10.9429 6.76067 11.2263 6.75325L11.0062 6.76043L11.4034 6.78077L10.8471 6.7042C11.166 6.75578 11.4808 6.83097 11.7886 6.92913L11.6427 6.88127C11.9885 7.04159 12.3342 7.20311 12.6716 7.38019C13.2615 7.68887 13.8274 8.04062 14.4184 8.34691L15.153 8.71302L15.7907 8.96786C15.9537 9.00494 16.1201 9.02538 16.2873 9.02888C16.3707 9.03813 16.4552 9.02915 16.5349 9.00256C16.6751 8.95113 16.7991 8.86315 16.8938 8.74771C16.9674 8.65975 17.0063 8.54787 17.0029 8.43323C16.9996 8.31859 16.9544 8.20914 16.8759 8.12557C16.72 7.95107 16.5224 7.81893 16.3016 7.74151C15.8159 7.54051 15.2368 7.5106 14.7199 7.45795C13.8034 7.36344 12.8822 7.32515 11.9681 7.29643C11.3316 7.27849 10.7095 7.26892 10.0873 7.25935C9.73916 7.24518 9.39051 7.24957 9.04282 7.27251C8.4516 7.3082 7.85855 7.3002 7.26851 7.24858C7.19094 7.25035 7.11643 7.27918 7.05787 7.33009C6.99931 7.381 6.9604 7.45078 6.94786 7.52735C6.94906 7.65178 7.17518 7.93892 7.30799 7.93892Z" fill="#ADD1C0"/>
<path id="Vector_4" opacity="0.11" d="M7.66187 8.52877C9.82383 8.50245 11.993 8.5515 14.1525 8.66397C14.6921 8.69148 15.2365 8.72738 15.7713 8.80395C16.1664 8.84398 16.5526 8.94698 16.9151 9.10904L16.6758 8.96068L16.7859 9.0564L15.0283 6.52833L12.5039 7.47471L12.7096 7.39933C12.2311 7.44839 11.7429 7.46035 11.2584 7.5106C10.9222 7.5453 10.5513 7.5776 10.239 7.71041C9.99905 7.80441 9.78729 7.95849 9.62403 8.15787C9.5185 8.27111 9.44571 8.41088 9.41345 8.56227C9.35787 8.69533 9.34207 8.84166 9.36798 8.98351C9.39389 9.12537 9.46039 9.25667 9.55942 9.36149C9.71645 9.68411 9.95375 9.96097 10.2486 10.1655L10.8552 10.6094C11.1362 10.8479 11.4527 11.0413 11.7932 11.1825C12.0863 11.3248 12.3854 11.4553 12.6881 11.5749C13.5436 11.9338 14.4433 12.2425 15.2281 12.7426L15.0511 12.5488L15.209 12.7271L14.2961 10.0112L11.7333 11.1765L12.3459 11.0868L11.3888 11.0592L11.8075 11.1119C10.507 10.924 9.19331 10.7529 7.87483 10.7864C7.42498 10.7922 6.97621 10.8322 6.53243 10.9061C6.19709 10.9507 5.87697 11.0736 5.59801 11.265C5.38146 11.4241 5.08355 11.7436 5.17089 12.0463C5.25069 12.3214 5.37562 12.5814 5.54058 12.8156L6.16513 13.3708C6.49853 13.5614 6.82596 13.7608 7.1474 13.969C7.45259 14.2013 7.80123 14.3701 8.17275 14.4655C8.6156 14.5972 9.04959 14.7571 9.47208 14.9441L9.34047 14.8878C9.76335 15.0919 10.2038 15.2573 10.6566 15.382L11.3373 15.5937C12.0815 15.8079 12.852 15.9527 13.6106 16.1118C14.149 16.2314 14.6874 16.3391 15.2198 16.4707C15.6353 16.5632 16.0374 16.7083 16.4162 16.9026L16.1996 16.7292L16.3325 16.8667L15.209 15.0852L16.0154 16.521L15.2114 14.2166C14.2704 14.5591 13.2906 14.7842 12.2945 14.8866L12.5218 14.8699C11.5834 14.6888 10.6311 14.5892 9.67547 14.572C8.38093 14.5564 7.08878 14.5923 5.79543 14.6462C5.66741 14.6653 5.62314 14.7359 5.66501 14.8591C5.79047 15.0649 5.97178 15.2309 6.18786 15.3377C6.55636 15.5866 6.93523 15.8191 7.32447 16.0352C7.51578 16.1795 7.74382 16.2669 7.98251 16.2877C9.16579 16.192 10.3503 16.1501 11.5323 16.0603L12.243 16.0053C12.6474 16.0053 13.0518 16.0053 13.4562 16.0053L14.2303 15.9467L14.6168 15.918C14.7963 15.7568 14.9672 15.5862 15.1288 15.4071C15.412 15.1343 15.6995 14.8655 15.9915 14.6007L13.6764 15.1714L14.0652 15.3461L13.9695 15.2516L14.1741 15.5315L14.3129 15.8223C14.5511 16.2574 14.8885 16.6304 15.2975 16.911C15.4825 17.0507 15.6885 17.1601 15.9077 17.2352C16.0022 17.2735 16.0991 17.3082 16.1973 17.3369C16.2718 17.3666 16.3538 17.3716 16.4314 17.3511C16.5089 17.3307 16.5778 17.2858 16.628 17.2233C16.6778 17.1693 16.7089 17.1008 16.7169 17.0278C16.7248 16.9548 16.7092 16.8811 16.6722 16.8177C16.5726 16.5256 16.4559 16.2396 16.3229 15.961C16.1697 15.6069 16.0054 15.2587 15.8299 14.9166C15.7349 14.6591 15.5774 14.4293 15.3717 14.2477C15.2038 14.2362 15.0405 14.188 14.8931 14.1066C14.6737 14.0339 14.4505 13.9736 14.2243 13.9259C13.6261 13.7728 13.0159 13.6328 12.4069 13.4964L11.3301 13.2499C10.9712 13.147 10.6231 13.0429 10.2701 12.9364C9.99014 12.7941 9.71256 12.6493 9.4326 12.4985C9.32611 12.3669 9.22083 12.2353 9.11793 12.1025C9.10622 12.0803 9.08901 12.0614 9.06794 12.0478C9.04687 12.0341 9.02265 12.026 8.99758 12.0243C8.97252 12.0226 8.94743 12.0274 8.92473 12.0382C8.90202 12.0489 8.88245 12.0653 8.86788 12.0858L8.68482 12.3119L8.83557 12.1647C8.60507 12.2688 8.36453 12.349 8.11771 12.404L8.30077 12.3693L7.7851 12.3921L7.97414 12.4136L7.66307 12.2617L7.82219 12.6314L7.97175 12.4567L7.86287 12.5536C7.96533 12.5026 8.07513 12.4678 8.1883 12.4507C8.33645 12.4506 8.48426 12.4365 8.62979 12.4088C8.74943 12.3885 8.86907 12.3729 8.98872 12.3622C9.7018 12.2824 10.4161 12.2154 11.1315 12.1612C11.5084 12.1324 11.8901 12.1217 12.2658 12.0798C12.5996 12.0439 12.9394 11.9877 13.2708 11.9326C13.6417 11.8716 13.942 11.6515 14.2806 11.4971C14.3809 11.4587 14.4774 11.411 14.5689 11.3548C14.6632 11.31 14.7434 11.24 14.8006 11.1526C14.8578 11.0653 14.8898 10.9638 14.8931 10.8594L12.7719 11.6814L13.2373 11.8764L13.1104 11.8166C13.3709 11.9795 13.6118 12.1718 13.8283 12.3897C14.0316 12.5884 14.2474 12.7738 14.4744 12.9448L14.594 13.0226C14.886 13.301 15.1811 13.3361 15.4794 13.1279C15.5351 13.0834 15.575 13.0221 15.5931 12.9531C15.6112 12.8841 15.6066 12.8112 15.5799 12.745C15.5216 12.4528 15.4457 12.1643 15.3526 11.8812C15.2497 11.5246 15.1332 11.1725 15.0032 10.8247C14.9446 10.5667 14.821 10.3278 14.6443 10.1308L14.4361 10.0399L14.2806 9.89151C14.1011 9.74674 13.8893 9.65222 13.7146 9.50147C13.4754 9.2909 13.2361 9.07195 12.9429 8.93915L13.0626 9.01931L12.8389 8.85061L12.9394 8.95111L12.7479 8.73695H12.6056C12.4472 8.83339 12.2605 8.87266 12.0767 8.84822L12.1964 8.92L12.0492 8.72259L12.1306 8.84224L12.1557 8.77045L11.853 8.96068C12.1304 8.89675 12.4015 8.80785 12.663 8.69507C12.9059 8.61581 13.1531 8.5507 13.4036 8.50006C13.7226 8.39477 14.0417 8.29985 14.3607 8.2153C14.7125 7.98319 15.0714 7.76026 15.4375 7.54649L13.0446 7.75108L14.9063 8.47613L14.8118 8.38041C15.1292 8.76677 15.5084 9.09788 15.934 9.36029C16.0557 9.4107 16.1813 9.45073 16.3097 9.47994C16.4372 9.52192 16.567 9.55627 16.6986 9.58283C16.7903 9.57612 16.8793 9.54835 16.9586 9.50166C17.0378 9.45497 17.1053 9.39062 17.1556 9.31363C17.1956 9.2513 17.2148 9.1779 17.2105 9.10396C17.2062 9.03001 17.1786 8.95934 17.1317 8.90206C16.9195 8.51017 16.6846 8.13105 16.4282 7.76664C16.1835 7.39269 15.9174 7.03316 15.6313 6.68984C15.5953 6.62503 15.5396 6.57332 15.4723 6.54215C15.405 6.51098 15.3296 6.50195 15.2569 6.51636C15.1623 6.52188 15.0678 6.50422 14.9817 6.46491C14.7962 6.42782 14.6084 6.39911 14.4193 6.37877C13.8209 6.29166 13.2182 6.23615 12.6139 6.21247C12.1433 6.21247 11.6731 6.21247 11.2033 6.21247C10.6737 6.19252 10.1421 6.17378 9.60847 6.15623C8.97037 6.14028 8.33227 6.11994 7.69417 6.09521C6.99864 6.02742 6.30192 5.98754 5.604 5.97557C5.05483 5.95523 5.88277 6.82504 5.89832 6.84299C6.25007 7.2418 6.61578 7.63144 6.99545 8.01191C7.17338 8.23468 7.40183 8.41186 7.66187 8.52877Z" fill="#ADD1C0"/>
<path id="Vector_5" opacity="0.11" d="M8.22895 7.84922L9.31412 7.75829H9.20405C11.0932 7.7894 12.9848 7.787 14.8692 7.9246C15.3759 7.95625 15.8806 8.01375 16.3815 8.09688C16.7197 8.14458 17.0471 8.25022 17.3494 8.40915L17.2525 8.32062L17.4595 8.51564L17.2058 7.97724L17.2333 8.23447V8.10885L17.1939 8.22849L17.2656 8.15431L17.0563 8.33617L17.2716 8.27515L15.3513 7.64104C14.9262 7.39697 14.4967 7.16087 14.0628 6.93275C13.6548 6.715 13.2576 6.47571 12.8436 6.26753C12.7386 6.18718 12.6153 6.13415 12.4847 6.11319L12.2119 6.07969C12.0408 6.06294 11.8817 6.06294 11.7154 6.04978C11.1638 6.01269 10.629 5.94329 10.087 6.0749C9.67664 6.17181 9.30933 6.32974 9.04014 6.67312C8.96832 6.73729 8.91572 6.82012 8.88819 6.91241C8.78001 7.04715 8.72929 7.2191 8.74701 7.39098C8.69197 7.86956 8.73265 7.9892 9.07962 8.50367C9.24797 8.74462 9.43223 8.97405 9.63118 9.19043L10.1899 9.76831C10.39 9.99096 10.6134 10.1915 10.8563 10.3665C11.2658 10.601 11.694 10.8011 12.1365 10.9647C12.7347 11.2112 13.333 11.4326 13.9419 11.6192C14.5509 11.8058 15.2185 11.9315 15.6983 12.3765L15.5787 11.9985V12.2952L15.6146 12.0451L15.4734 12.1564L15.6947 12.1396C14.695 11.837 13.75 11.377 12.8951 10.7769L12.3303 10.345C12.086 10.1015 11.7899 9.91627 11.4641 9.803C11.3818 9.77051 11.2975 9.74334 11.2117 9.72164C10.7486 9.58525 10.2796 9.41895 9.80227 9.35194C9.40117 9.28801 8.99703 9.24488 8.59147 9.22273C8.07344 9.19291 7.55413 9.19291 7.0361 9.22273C6.62781 9.23666 6.22242 9.29686 5.8277 9.4022C5.56927 9.48475 5.21034 9.602 5.00694 9.78266C4.7894 9.96735 4.65247 10.2296 4.62528 10.5137C4.57264 10.7996 4.78919 11.1634 4.91721 11.3679C5.0068 11.5162 5.1172 11.6507 5.24504 11.7676C5.50985 12.0754 5.78902 12.3714 6.08254 12.6553C6.35653 13.0633 6.74485 13.3812 7.19882 13.5694C7.70644 13.8659 8.23143 14.1315 8.77094 14.365C9.28182 14.5349 9.80825 14.6294 10.3263 14.7491C10.781 14.852 11.232 14.9692 11.6879 15.0673C12.3603 15.2109 13.0386 15.3246 13.7134 15.4538C14.3535 15.5734 14.9972 15.6931 15.6277 15.8474C16.0353 15.9346 16.4263 16.0864 16.7859 16.2973L16.7009 16.2075L16.9043 16.4396L16.7153 15.918L16.6961 16.1884L16.7847 15.9982L16.5562 16.1884L16.7739 16.1381C16.6204 16.1593 16.4641 16.1477 16.3154 16.104C16.1666 16.0602 16.0289 15.9854 15.9113 15.8845C15.6755 15.7903 15.4575 15.6568 15.2664 15.4897C14.862 15.1774 14.4756 14.8424 14.0783 14.5206C13.7407 14.2355 13.3806 13.9782 13.0015 13.7512C12.7566 13.5946 12.4983 13.4597 12.2298 13.348L11.6436 13.2284L10.9556 13.1088C10.5512 13.0513 10.1373 13.0322 9.72928 13.0047C9.22678 12.9724 8.7147 12.9903 8.20981 12.9951C7.3041 13.0059 6.3984 13.043 5.49389 13.0824C5.26298 13.092 5.20316 13.3217 5.34554 13.4809C5.50918 13.5894 5.68664 13.6755 5.87317 13.7369C6.05405 13.8129 6.24443 13.8641 6.43908 13.8888C7.56373 13.8123 8.68719 13.7536 9.81304 13.701C10.4567 13.6711 11.0956 13.6579 11.7273 13.7931L11.5826 13.7297C12.258 14.077 12.9035 14.4795 13.5124 14.9333C14.2399 15.461 14.9254 16.0556 15.7258 16.4719C15.9066 16.5687 16.0982 16.6438 16.2965 16.6957C16.4725 16.7595 16.6608 16.782 16.8469 16.7615C16.9625 16.7127 17.0712 16.6487 17.1699 16.5713C17.2134 16.5411 17.2482 16.5 17.2706 16.4521C17.2931 16.4042 17.3025 16.3512 17.298 16.2985C17.3434 16.1298 17.225 15.8917 17.1089 15.7768C16.7966 15.4693 16.4365 15.3425 16.0166 15.2324C15.4183 15.0793 14.8201 14.9812 14.2111 14.8807C13.4311 14.7515 12.6486 14.6414 11.8685 14.511C11.4187 14.4368 10.9692 14.3594 10.5201 14.2789C9.95541 14.2286 9.39348 14.1529 8.83435 14.0516L9.07364 14.1102C8.58629 13.8334 8.10213 13.5542 7.62116 13.2727C6.58425 12.7678 5.94415 11.8673 5.70088 10.5711L5.59918 10.7913L5.8612 10.491L5.75113 10.5627L6.13877 10.327L6.01913 10.3869C6.49934 10.1871 7.00447 10.0534 7.52066 9.98965C8.10931 9.91307 8.69676 9.88316 9.29019 9.87L9.09278 9.86282C9.41183 9.87878 9.73088 9.90231 10.0499 9.93341L9.58691 9.84129C10.0882 9.97409 10.5764 10.1248 11.0681 10.2876L10.9604 10.2481C11.3808 10.3673 11.7673 10.5837 12.0887 10.8798C12.5733 11.2304 13.0757 11.5558 13.5938 11.8549C14.0643 12.1419 14.5545 12.3954 15.0606 12.6134C15.1803 12.6649 15.5882 12.7857 15.7928 12.7103C16.1039 12.5907 16.1518 12.4065 16.1254 12.1121C16.0788 11.6336 15.4937 11.4625 15.1049 11.35C14.7998 11.2806 14.4947 11.2184 14.1884 11.161L12.8448 10.741C12.0241 10.4668 11.2686 10.0266 10.6254 9.44766C10.0719 8.92116 9.7041 8.22928 9.57734 7.47593L9.56178 7.70804L9.75082 7.25938L9.68023 7.35509L10.0081 6.97462L9.92191 7.06077C10.0925 6.87867 10.3091 6.74599 10.5488 6.67671C10.7775 6.60478 11.0121 6.55353 11.25 6.52357L11.0777 6.5463L11.6627 6.5798L12.8077 6.916C13.1706 7.09068 13.5296 7.27573 13.8845 7.47115C14.1848 7.63386 14.4827 7.79538 14.7854 7.94972C15.2843 8.21653 15.7833 8.48214 16.3061 8.69989C16.5214 8.8105 16.7564 8.87759 16.9976 8.8973C17.1759 8.91525 17.3099 8.95114 17.4631 8.8626C17.5668 8.81438 17.6599 8.74606 17.737 8.6616C17.9045 8.43787 17.8567 8.18303 17.7287 7.9557C17.6006 7.72838 17.3183 7.58959 17.0718 7.49029C16.4736 7.251 15.7557 7.21271 15.1228 7.15529C14.1406 7.06555 13.1523 7.03564 12.1664 7.00573C11.3289 6.983 10.4998 6.98061 9.66587 6.96744C8.93365 6.95668 8.86426 6.97702 8.00402 7.06436C7.92125 7.08708 7.84868 7.13729 7.79823 7.20673C7.77204 7.24112 7.75785 7.28315 7.75785 7.32638C7.75785 7.3696 7.77204 7.41164 7.79823 7.44602C7.86763 7.61831 8.02316 7.86597 8.22895 7.84922Z" fill="#ADD1C0"/>
<path id="Vector_6" opacity="0.11" d="M6.5679 8.92363C7.66503 8.92363 8.76097 8.89252 9.8569 8.91047C10.7028 8.92482 11.5511 8.94038 12.3957 8.98704C13.4008 9.04088 14.4082 9.10668 15.3868 9.33281L15.2744 9.28854C15.4112 9.32824 15.5403 9.39096 15.656 9.47399L15.5017 9.2347L15.5101 9.33281L15.54 9.2335L15.3139 9.36391L15.5531 9.29452H14.9968L15.2361 9.34716C14.7817 9.2159 14.3557 9.00128 13.9798 8.71425C13.581 8.43747 13.1822 8.1583 12.7834 7.87674C12.3718 7.73556 11.9539 7.61233 11.5295 7.50704C11.1277 7.39609 10.7198 7.30821 10.308 7.24383C9.80541 7.14082 9.28803 7.13271 8.7825 7.2199C8.39366 7.30006 7.90432 7.41851 7.65785 7.76787C7.54511 7.92279 7.46844 8.10096 7.43345 8.28935C7.39846 8.47773 7.40605 8.67155 7.45565 8.85662C7.64025 9.37354 7.95265 9.83534 8.36375 10.199C8.7163 10.5245 9.07523 10.8435 9.44054 11.1562C9.8928 11.4385 10.3478 11.7229 10.8057 12.0092C11.198 12.3275 11.6621 12.5452 12.1577 12.6434C12.5381 12.7546 12.9174 12.8707 13.2967 12.9879C13.5284 13.0784 13.7501 13.1927 13.9583 13.3289L13.8638 13.2535L14.0277 13.4127L13.8482 12.9963L13.871 13.1853L14.0408 12.9078L13.8016 12.9903L14.0516 12.9807C13.5205 12.9094 13.0247 12.6749 12.6326 12.3095L12.72 12.373C12.525 12.1117 12.2569 11.9143 11.9495 11.8058C11.6528 11.6766 11.3513 11.5522 11.0557 11.4326C10.5353 11.2292 10.01 11.0246 9.47883 10.8511C8.44523 10.525 7.36695 10.3627 6.28314 10.3701C5.56528 10.3701 4.78281 10.3701 4.09606 10.6166C3.89472 10.6794 3.71106 10.7888 3.56005 10.936C3.47441 10.9973 3.40464 11.0781 3.35656 11.1717C3.30849 11.2654 3.2835 11.3692 3.28367 11.4744C3.25222 11.534 3.2345 11.5998 3.23181 11.6671C3.22911 11.7344 3.24152 11.8014 3.26812 11.8633L3.57919 12.5297C3.6562 12.718 3.79502 12.8746 3.97282 12.9736C4.24133 13.2642 4.54945 13.5155 4.8881 13.7201L5.31881 14.0659L6.09171 14.7048C6.32315 14.9402 6.57996 15.1493 6.85743 15.3282C7.13322 15.5098 7.45349 15.6124 7.78348 15.6249L8.67004 15.8642C9.91553 16.1764 11.1826 16.399 12.4496 16.6263C13.3062 16.7806 14.206 16.9158 15.004 17.2724L14.8951 17.2149L15.2385 17.4913L14.9932 17.0977V17.1874L15.1392 17.0139L14.8736 17.1444L15.1129 17.0929C14.7785 17.1174 14.4468 17.0182 14.1808 16.8141C14.0128 16.7103 13.8528 16.5939 13.7023 16.466C13.4414 16.2578 13.1898 16.0396 12.9473 15.8115C12.7231 15.6215 12.4719 15.4659 12.2019 15.3497C11.843 15.1702 11.4841 14.9908 11.1251 14.8316C10.814 14.6894 10.4944 14.5667 10.168 14.4643C9.75179 14.3391 9.32413 14.2557 8.89138 14.2155C8.14921 14.1553 7.40444 14.1333 6.66002 14.1497C5.74594 14.1497 4.83306 14.1772 3.92018 14.2107C3.87467 14.2191 3.83387 14.244 3.80561 14.2807C3.77734 14.3173 3.76361 14.3631 3.76703 14.4093C3.78546 14.4868 3.81919 14.5599 3.86624 14.6242C3.91329 14.6885 3.97271 14.7428 4.04102 14.7838C4.25549 14.9731 4.4821 15.1481 4.7194 15.3078C4.77644 15.3635 4.84404 15.4072 4.91821 15.4364C4.99238 15.4655 5.07163 15.4796 5.15131 15.4777C6.54516 15.3808 7.94141 15.3389 9.33885 15.26H9.17134C9.56298 15.2671 9.95421 15.2783 10.3451 15.2935C10.6477 15.3473 10.9504 15.4131 11.2508 15.4789L11.0115 15.3976L11.5917 15.6715C11.8518 15.8733 12.1054 16.0827 12.3527 16.2997C12.6637 16.5677 12.9724 16.8357 13.3098 17.0773C13.6868 17.3596 14.1092 17.5753 14.5589 17.7151C14.73 17.7665 14.9609 17.855 15.144 17.8167C15.2927 17.7819 15.4318 17.714 15.5508 17.6181C15.5971 17.578 15.6332 17.5275 15.6563 17.4707C15.6794 17.414 15.6887 17.3526 15.6836 17.2915C15.662 17.1013 15.4754 16.9398 15.3462 16.8129C15.0674 16.5449 14.6008 16.4073 14.2454 16.3164C13.4474 16.1154 12.6338 15.9778 11.8227 15.8378C11.3931 15.7661 10.9648 15.6835 10.5365 15.5986C9.97774 15.4921 9.41063 15.4167 8.86147 15.2899L7.91987 15.0362L6.37886 14.0791C6.02711 13.7895 5.06278 12.6613 4.98979 12.2928L4.97304 12.422C5.00623 12.2074 5.07326 11.9994 5.17165 11.8058L5.08551 11.9087C5.17241 11.8203 5.28218 11.7577 5.40257 11.7281L5.661 11.6946C5.82287 11.6541 5.9871 11.6238 6.15273 11.6036C6.82154 11.5079 7.49035 11.4589 8.16394 11.4242L8.00841 11.4314C8.34899 11.4314 8.68998 11.4385 9.03136 11.4529C9.37354 11.4952 9.71413 11.547 10.0531 11.6084L9.84135 11.5666L10.4156 11.7987L10.2457 11.7113C10.6645 11.9327 11.0833 12.1648 11.4841 12.4088L12.1852 12.9102C12.6901 13.2595 13.2165 13.628 13.8339 13.7393C13.998 13.7578 14.1633 13.7152 14.2981 13.6196C14.4704 13.5299 14.5158 13.4246 14.4835 13.2236C14.4165 12.8001 13.9511 12.5608 13.6041 12.4053C13.0849 12.166 12.5094 12.0463 11.9662 11.8764C11.6056 11.8037 11.2805 11.6099 11.045 11.3273C10.5927 10.9899 10.1576 10.6309 9.73965 10.2505L9.8234 10.3318C9.6295 10.156 9.47497 9.9411 9.36995 9.70131C9.22102 9.45983 9.13848 9.18331 9.13067 8.8997L9.1522 9.02891L9.21322 8.45582L9.19527 8.58862L9.26108 8.28832L9.21202 8.40796L9.31731 8.30267L9.16297 8.36489C9.32622 8.34034 9.48358 8.286 9.62719 8.20457C9.7577 8.13253 9.89793 8.07974 10.0435 8.04783L9.88921 8.08373C10.394 7.98529 10.9108 7.96432 11.4218 8.02151L11.2101 7.99758L11.6791 8.08014L11.1562 7.95212L11.7054 8.14474L11.5475 8.08253L12.1373 8.34455L12.9198 8.82911C13.3984 9.11865 13.8638 9.41536 14.3555 9.66661L14.8736 9.89154C14.9931 9.94301 15.1215 9.97103 15.2516 9.9741C15.4514 10.004 15.5244 10.0303 15.6919 9.9741C15.9037 9.89872 16.1215 9.7707 16.1885 9.54099C16.2555 9.31127 16.0975 9.13181 15.9264 8.98943C15.4239 8.57546 14.6845 8.52043 14.0684 8.45582C13.0657 8.33617 12.0548 8.30028 11.045 8.27157C10.424 8.25362 9.80187 8.24405 9.18092 8.23567C8.8344 8.22151 8.4874 8.2247 8.14121 8.24524C7.55404 8.27478 6.96568 8.27159 6.37886 8.23567C6.23768 8.23567 6.08932 8.43907 6.11804 8.57068C6.14675 8.70228 6.42313 8.92363 6.5679 8.92363Z" fill="#ADD1C0"/>
<path id="Vector_7" opacity="0.11" d="M7.23818 10.0542C9.28529 10.0542 11.3312 10.0913 13.3759 10.1739C14.3426 10.2145 15.3333 10.2576 16.2665 10.5328L15.429 10.0052L16.3981 10.9085L15.9064 9.55768C15.7188 9.59221 15.5404 9.66512 15.3823 9.77185L15.502 9.72997L14.473 9.61033L14.5676 9.64263C14.2614 9.49899 13.9465 9.37471 13.6248 9.27054C12.993 9.11101 12.3593 8.95907 11.7236 8.8147C11.3921 8.68119 11.0524 8.5689 10.7067 8.4785C10.5236 8.44262 10.338 8.42102 10.1515 8.41389C9.7553 8.3843 9.35744 8.4423 8.98618 8.58378C8.68827 8.70343 8.42744 8.84102 8.27669 9.14013C8.21307 9.25901 8.16291 9.38461 8.12714 9.51461C8.05404 9.95997 8.16076 10.4161 8.42385 10.7828L8.97182 11.4469C9.37735 11.8342 9.81793 12.183 10.2879 12.489C11.0974 12.9982 11.9645 13.4094 12.871 13.7141C13.4549 13.9151 14.0543 14.091 14.607 14.3698L14.4108 14.1987L14.7698 14.5241L14.1189 13.756L14.5688 14.4392L14.2218 13.2714L13.8916 13.4437L14.0184 13.4174L13.2204 13.3073L13.3149 13.3528C12.8474 13.0709 12.3319 12.8779 11.7942 12.7833C11.1699 12.643 10.57 12.4107 10.0139 12.0941C9.69484 11.9567 9.36191 11.854 9.02087 11.7878C8.07339 11.5572 7.0956 11.4764 6.1231 11.5486C5.59547 11.5868 4.99486 11.6251 4.53184 11.9075C4.16334 12.1276 3.86064 12.5536 3.89414 13.0022C3.88607 13.1383 3.92869 13.2726 4.01378 13.3791C4.06643 13.5239 4.12386 13.6674 4.18487 13.8086L4.72686 14.4068C5.04122 14.7132 5.38015 14.9933 5.74024 15.2444C6.11832 15.5243 6.50477 15.7863 6.90677 16.0328C7.27575 16.2959 7.68623 16.4953 8.12115 16.6227C8.50641 16.7638 8.89884 16.8883 9.29486 16.9983C10.4518 17.2903 11.6351 17.4769 12.8088 17.6863C13.7659 17.855 14.7339 18.0141 15.6575 18.3288L15.4362 18.1864L16.0069 18.5896L15.2723 17.8646L15.7664 18.507L15.3297 17.3597L15.21 17.4542L15.3153 17.374L15.094 17.4362L14.3355 17.3345C14.0196 17.2472 13.7145 17.0187 13.4214 16.8703C12.4887 16.3843 11.5223 15.9661 10.5296 15.6188C10.3457 15.5508 10.1579 15.4937 9.96726 15.4477C9.56591 15.3837 9.16045 15.349 8.75407 15.3437C7.35783 15.2707 5.9568 15.3293 4.56654 15.3748C4.42655 15.3748 4.2447 15.4944 4.24948 15.6571C4.24948 15.7828 4.50073 16.0974 4.63832 16.0926C5.8204 16.0519 7.00249 16.0077 8.18576 16.0256C8.6444 16.0256 9.10223 16.044 9.55927 16.0807C9.90215 16.0626 10.2449 16.1185 10.5643 16.2446L10.453 16.2075C11.2795 16.4736 12.0804 16.8135 12.8459 17.2233L12.7394 17.1634C13.0178 17.3397 13.2942 17.5188 13.5685 17.7006C13.8493 17.9136 14.1285 18.1278 14.406 18.3431C14.7878 18.6307 15.2359 18.8175 15.709 18.8863C15.9483 18.911 16.1449 18.805 16.2988 18.5681C16.4771 18.4484 16.2474 18.1517 16.1851 18.0727C15.9829 17.8155 15.7377 17.508 15.4505 17.3477C15.2629 17.2459 15.0613 17.1721 14.8523 17.1287C14.5233 17.0534 14.1955 16.9756 13.8629 16.911C12.9272 16.7303 11.9809 16.5987 11.0393 16.4504C10.5926 16.381 10.1475 16.304 9.70404 16.2195C9.35804 16.1753 9.01759 16.0951 8.68827 15.9802C8.47051 15.914 8.25396 15.8434 8.0386 15.7684C7.69199 15.6817 7.37144 15.5126 7.10418 15.2755L6.43777 14.8352L5.80126 14.4607C4.69176 13.1845 4.60203 12.4874 5.53206 12.3693L5.42797 12.3908C6.01447 12.2815 6.61058 12.2322 7.20708 12.2437C7.56521 12.2437 7.92175 12.2632 8.27669 12.3023C8.65695 12.3198 9.03373 12.3829 9.39895 12.4902L9.29127 12.465L10.2867 12.8407C10.483 12.9728 10.6913 13.0862 10.9089 13.1793C11.5489 13.4641 12.2357 13.5526 12.8399 13.9283C13.1797 14.14 13.492 14.4068 13.8401 14.609C14.059 14.7446 14.3092 14.8212 14.5664 14.8316C14.7215 14.8489 14.8773 14.8061 15.0019 14.7119C15.2711 14.6186 15.0019 14.17 14.9325 14.0383C14.7925 13.7584 14.6513 13.3983 14.3522 13.2607C13.9466 13.0752 13.5219 12.9544 13.1031 12.8024C12.7753 12.6828 12.4475 12.5631 12.1208 12.4435C11.7635 12.2561 11.4138 12.0566 11.0716 11.8453L11.1721 11.9147L10.6133 11.5174C9.85719 11.2311 9.39416 10.7573 9.22427 10.0961C9.18595 10.026 9.16304 9.94856 9.15705 9.86892C9.15107 9.78927 9.16216 9.70927 9.18957 9.63426C9.1465 9.41292 9.23982 9.28131 9.46595 9.23824L9.36545 9.2825C9.57604 9.18988 9.79696 9.1228 10.0235 9.0827C10.285 9.06674 10.5473 9.06994 10.8084 9.09227L10.6971 9.07313C10.9471 9.13727 11.1935 9.21475 11.4353 9.30524C12.0051 9.51576 12.596 9.66418 13.1976 9.74792L13.066 9.69408C13.4656 9.86996 13.8916 10.0243 14.2756 10.2349C14.692 10.4634 15.0689 10.8451 15.5247 10.9731C15.6444 10.9958 15.764 11.0185 15.8836 11.0389C15.9977 11.0836 16.1206 11.1008 16.2426 11.0891C16.3313 11.0917 16.4183 11.0639 16.489 11.0102C16.5553 10.9994 16.618 10.9731 16.6721 10.9334C16.7262 10.8937 16.7701 10.8417 16.8001 10.7816C16.988 10.5615 16.7188 10.3186 16.5812 10.1547C16.465 10.0106 16.3378 9.87582 16.2007 9.75151C16.1598 9.69363 16.1062 9.64586 16.0439 9.61185C15.9817 9.57785 15.9126 9.5585 15.8418 9.55529L15.6719 9.57683L15.825 9.58999C14.8978 9.29327 13.8581 9.25618 12.8925 9.23106C10.7557 9.17722 8.61887 9.14252 6.48323 9.07313C6.26668 9.07313 6.13746 9.22986 6.25591 9.43206C6.39148 9.57164 6.54521 9.69236 6.71295 9.79099C6.87534 9.90204 7.05202 9.99058 7.23818 10.0542Z" fill="#ADD1C0"/>
<path id="Vector_8" opacity="0.11" d="M8.38271 8.47614C10.5483 8.47614 12.7162 8.51682 14.8794 8.62809C15.4178 8.6556 15.9562 8.6915 16.4958 8.77166C16.8897 8.81316 17.2744 8.91822 17.6348 9.08273L17.4457 8.96309L17.5522 9.0588L16.954 8.24283L17.5606 9.14734L16.6465 7.4137L17.027 8.95591L16.814 7.3479L16.6166 7.68529L16.8344 7.50463C16.6204 7.62489 16.3713 7.66718 16.1296 7.62427C15.943 7.59077 15.7576 7.55249 15.5721 7.513C14.6854 7.5718 13.7948 7.51712 12.922 7.35029C12.6205 7.29166 12.3154 7.24859 12.0091 7.21988C11.515 7.17202 11.034 7.16484 10.5566 7.33115C10.157 7.46993 9.79451 7.69008 9.65453 8.1208C9.60169 8.28314 9.58615 8.45531 9.60906 8.6245C9.5973 8.76306 9.61799 8.90247 9.6695 9.03165C9.721 9.16082 9.8019 9.27622 9.90578 9.36868C10.2199 9.79965 10.5956 10.1822 11.0209 10.5041C11.2265 10.7072 11.4568 10.8836 11.7064 11.0293C12.4943 11.4947 13.3293 11.8753 14.1974 12.1648C14.7825 12.361 15.3615 12.5404 15.9035 12.8383L15.7599 12.7187L15.9251 12.8742L15.3627 11.064L15.1234 12.5512L15.4967 11.4744L15.1378 11.6108L15.2574 11.5737C14.8087 11.5782 14.3603 11.5482 13.9162 11.484C13.3749 11.422 12.8438 11.2909 12.3357 11.0939C11.9352 10.9455 11.527 10.8185 11.113 10.7135C10.3485 10.5082 9.56274 10.393 8.77156 10.3701C8.01541 10.3462 7.18149 10.3701 6.44807 10.5819C5.90489 10.7446 5.39042 11.0975 5.44546 11.7316C5.46699 11.9793 5.62492 12.2222 5.7661 12.4292C6.00539 12.7737 6.62515 13.2368 6.93861 13.4808L7.59067 13.9809C8.05877 14.293 8.54279 14.5806 9.04075 14.8424C9.65901 15.0925 10.2964 15.2926 10.9467 15.4406C12.1742 15.7337 13.4137 15.9563 14.6556 16.2003C15.4931 16.3643 16.3917 16.4947 17.1442 16.9098L16.9779 16.7818L17.1059 16.9158L16.284 14.9776L16.2026 16.5569L16.4587 15.3269C16.3508 15.3918 16.2249 15.4199 16.0997 15.4071C15.9238 15.4197 15.7471 15.4003 15.5781 15.3497L15.687 15.3772C15.2084 15.2468 14.7956 15.23 14.2895 15.187L14.9021 15.2731C14.134 15.0625 13.3467 14.8771 12.5978 14.6151C12.3417 14.5122 12.0821 14.4176 11.8213 14.3315C11.6551 14.2906 11.4858 14.2634 11.3152 14.2501C11.0177 14.2111 10.719 14.18 10.419 14.1568C10.0601 14.1496 9.71196 14.1473 9.35901 14.1496C8.32409 14.1496 7.29156 14.1808 6.25784 14.225C6.03052 14.2346 5.91327 14.4057 6.06402 14.6031C6.22505 14.7366 6.40233 14.8491 6.59165 14.9381C6.77401 15.0415 6.96853 15.1219 7.17072 15.1774C8.19846 15.1152 9.22261 15.0781 10.2504 15.0446L11.3128 15.0099C11.6968 15.0398 12.0809 15.0697 12.465 15.102L11.9278 14.9453C12.313 15.092 12.6971 15.242 13.0799 15.3951C13.2949 15.4492 13.5125 15.4919 13.732 15.5232C13.8935 15.5842 14.0562 15.6428 14.2189 15.6966C14.4522 15.7469 14.6798 15.8203 14.8985 15.9156C15.2069 16.1356 15.5006 16.3754 15.7779 16.6335C15.9446 16.7579 16.1129 16.8775 16.2828 16.9924C16.4662 17.0833 16.6521 17.1679 16.8403 17.246C16.919 17.2838 17.0066 17.2993 17.0935 17.2908C17.1804 17.2824 17.2633 17.2503 17.3333 17.1982C17.6455 17.1204 17.3512 16.4253 17.3022 16.2602C17.2285 15.9974 17.1415 15.7387 17.0413 15.4849C16.9998 15.29 16.8946 15.1144 16.7422 14.986C16.4995 14.8491 16.2463 14.7319 15.9849 14.6354C15.736 14.5564 15.4812 14.493 15.2287 14.4308C14.2894 14.2188 13.3381 14.0637 12.38 13.9666C11.862 13.9056 11.3415 13.8469 10.8246 13.7811L10.1893 13.6962C9.89022 13.6284 9.59311 13.5526 9.29799 13.4689C9.03396 13.4202 8.78514 13.31 8.57175 13.147L8.16137 12.8934L8.0501 12.8276C7.78738 12.752 7.5423 12.625 7.3291 12.4539C7.1159 12.2828 6.93884 12.0711 6.8082 11.8309L6.88358 12.0702V11.6981L6.8429 11.8178C6.85683 11.7716 6.88062 11.7289 6.91263 11.6927C6.94465 11.6566 6.98413 11.6278 7.02835 11.6084C7.13544 11.5314 7.25786 11.4784 7.38728 11.4529L7.2437 11.4924L7.73185 11.3727L7.57512 11.4098C8.1049 11.318 8.64 11.2601 9.17715 11.2363C9.85342 11.2142 10.5304 11.2357 11.2039 11.3009L10.9826 11.265C11.3512 11.336 11.7119 11.4434 12.0594 11.5857L12.4315 11.7604C12.6761 11.8668 12.9328 11.9428 13.196 11.9865C13.5174 12.0755 13.8321 12.1875 14.1376 12.3215C14.5396 12.489 14.8483 12.7749 15.2263 12.9819C15.3745 13.0761 15.5358 13.1479 15.7049 13.1949C15.7751 13.236 15.8561 13.2549 15.9372 13.2491C16.0184 13.2434 16.0959 13.2132 16.1596 13.1626C16.4694 13.086 16.2648 12.489 16.2266 12.3023C16.182 12.057 16.1228 11.8145 16.0495 11.5761C16.0308 11.3927 15.9457 11.2225 15.8102 11.0975C15.5972 10.9538 15.3694 10.8335 15.1306 10.7386C14.6903 10.5771 14.2153 10.4993 13.7607 10.3928C13.2682 10.2682 12.7923 10.0855 12.3429 9.84845C12.0873 9.72592 11.8399 9.58684 11.6023 9.43209C11.3424 9.25974 11.1353 9.01871 11.0041 8.73576L11.0376 8.85541L10.9479 8.3888V8.51921L11.028 8.19856L10.9945 8.31821L11.1453 8.16267L11.0256 8.23685L11.3846 8.04183L11.2578 8.10524C11.4589 8.02625 11.6684 7.97084 11.8823 7.94013C12.145 7.87643 12.4176 7.86384 12.6851 7.90304L12.4638 7.8839C12.8335 7.91501 13.202 7.96167 13.5681 8.02628C13.8417 8.06196 14.1182 8.07078 14.3936 8.0526L13.915 8.01671C14.3829 8.08372 14.8458 8.18205 15.3005 8.31103L15.1892 8.27514C15.7 8.55566 16.188 8.87569 16.6489 9.23229C16.7685 9.28373 16.8882 9.33159 17.0174 9.37347C17.1385 9.42849 17.2659 9.46867 17.3967 9.49311C17.4861 9.50119 17.576 9.48618 17.6579 9.44951C17.7398 9.41285 17.811 9.35577 17.8645 9.28373C18.1205 9.03487 17.7724 8.56587 17.6527 8.3194C17.5283 8.05858 17.3915 7.80454 17.2423 7.55727C17.1651 7.3626 17.027 7.19809 16.8487 7.08827C16.5149 6.98657 16.2014 6.87291 15.8569 6.80352C15.2672 6.68716 14.6697 6.61478 14.0694 6.58696C13.5908 6.57739 13.115 6.5734 12.642 6.575C12.1108 6.54549 11.58 6.52196 11.0496 6.50441C10.4115 6.48686 9.77337 6.46772 9.13527 6.44698C8.44772 6.39114 7.75857 6.35366 7.06783 6.33451C6.606 6.31537 7.08817 6.977 7.15038 7.07152C7.3809 7.40812 7.62736 7.73355 7.88978 8.04781C8.00669 8.23741 8.17865 8.38684 8.38271 8.47614Z" fill="#ADD1C0"/>
<path id="Vector_9" opacity="0.11" d="M6.87048 8.35999C9.01091 8.27744 11.1645 8.33606 13.3049 8.4557C13.8408 8.47982 14.3751 8.53093 14.9058 8.60885C15.2901 8.65127 15.665 8.75551 16.0161 8.91753L15.8761 8.83258L16.0017 8.97855L15.711 8.44733V8.46767L15.8653 8.2894C15.2634 8.27186 14.6857 8.04846 14.2286 7.65648C14.0452 7.49685 13.8491 7.35241 13.6423 7.22457C13.2834 7.15039 12.9352 7.08219 12.5811 7.01759C12.0164 6.91629 11.4508 6.82576 10.8845 6.746C10.3437 6.69096 9.80773 6.64789 9.26814 6.75676C8.89007 6.83334 8.53353 6.93503 8.24638 7.20184C8.08196 7.34836 7.96293 7.53888 7.90336 7.7509C7.84378 7.96292 7.84615 8.18756 7.91018 8.39828C8.11734 8.88057 8.44185 9.30339 8.85417 9.62821C9.19795 9.90419 9.53295 10.1901 9.85918 10.4861L11.1286 11.3056C11.505 11.6295 11.9534 11.8588 12.4363 11.9744C13.0345 12.1874 13.6327 12.3716 14.1735 12.6923L14.0539 12.5834L14.1927 12.7294L13.9689 12.3369L14.1891 12.8155L14.1795 12.039C13.5514 12.3405 13.293 11.4408 12.9017 11.2398C12.5296 11.0508 12.0989 10.9455 11.7053 10.8211C10.3784 10.3987 9.01091 10.0242 7.61227 9.94886C6.70776 9.89981 5.74942 9.89023 4.86046 10.0912C4.57571 10.1422 4.30545 10.2544 4.06842 10.4203C3.82913 10.6033 3.5707 10.9969 3.66881 11.3056C3.76274 11.6001 3.90683 11.8762 4.09474 12.1216C4.45367 12.5822 4.9478 12.8107 5.4192 13.1122C5.69557 13.2857 5.95407 13.486 6.1909 13.7105C6.5291 14.0024 6.85812 14.3043 7.17796 14.6162L8.04538 14.9619C8.5562 15.1941 9.09644 15.3551 9.651 15.4405C10.7601 15.6642 11.8704 15.8772 12.9819 16.0878C13.8086 16.2445 14.7036 16.3618 15.4501 16.7698L15.3185 16.6716L15.4477 16.7985L15.1869 16.4264L15.4262 16.8703L15.3676 16.1105C14.9967 16.3199 14.4918 15.8712 14.2358 15.6942L14.3291 15.7635L13.9965 15.4716L14.0838 15.5578L13.7847 15.2419L13.878 15.3424C13.8067 15.2147 13.7127 15.1012 13.6004 15.0074C13.1083 14.8168 12.6126 14.6369 12.1133 14.4678C11.3954 14.2201 10.6775 13.9509 9.9202 13.8265C9.25019 13.72 8.53233 13.72 7.85156 13.72C6.67905 13.7117 5.50893 13.7464 4.33762 13.7918C4.31312 13.7932 4.28931 13.8005 4.26825 13.8131C4.24719 13.8257 4.22949 13.8432 4.21668 13.8642C4.20386 13.8851 4.1963 13.9088 4.19465 13.9333C4.193 13.9578 4.19731 13.9823 4.20721 14.0048C4.30571 14.1896 4.46085 14.3381 4.64989 14.4283C4.96894 14.6461 5.29637 14.8455 5.63217 15.0265C5.79859 15.1543 6.00148 15.2256 6.21124 15.2299C7.49143 15.1199 8.77401 15.0588 10.053 14.9392C10.394 14.9069 10.7278 14.9033 11.07 14.9033C11.4543 14.9208 11.8361 14.9748 12.2102 15.0648L11.8871 14.9799L12.3777 15.1151L11.5091 14.8088L11.9721 15.0098L11.6873 14.883C11.9439 15.005 12.1849 15.1572 12.4052 15.3364C12.6583 15.5132 12.9012 15.7041 13.1326 15.9083C13.3169 16.0734 13.5067 16.2306 13.7021 16.3797C13.8982 16.5506 14.1158 16.695 14.3494 16.8092C14.6436 16.9864 14.9725 17.0983 15.3137 17.1371C15.4944 17.1574 15.5985 17.0904 15.7636 17.0066C15.9287 16.9229 15.9347 16.8188 15.8904 16.6633C15.8462 16.5077 15.754 16.2086 15.6021 16.1177C15.3445 15.9145 15.0487 15.7652 14.7323 15.6786C14.4535 15.6008 14.1723 15.5314 13.8948 15.4728C13.354 15.3532 12.8096 15.2634 12.2652 15.1665C11.6311 15.0541 10.9994 14.9272 10.3653 14.8076C9.91541 14.7342 9.46635 14.6544 9.01809 14.5683C8.4414 14.329 7.8699 14.0822 7.30359 13.8277L7.39691 13.9354C7.12412 13.5693 6.85851 13.1976 6.60008 12.8203C6.42503 12.5 6.16879 12.2314 5.8571 12.0414L5.8894 12.1611L5.85351 11.7351L5.82838 11.8656L6.01503 11.5066L5.94204 11.6263L6.1239 11.387L6.03058 11.4923C6.13884 11.4149 6.26844 11.3731 6.40148 11.3726H6.18971C6.41185 11.4034 6.63762 11.3961 6.85732 11.3511C7.03331 11.315 7.21101 11.2879 7.38973 11.2697C7.76063 11.2171 8.13033 11.1692 8.50242 11.1274C8.85058 11.0879 9.19875 11.0484 9.5493 11.034C10.0459 11.0221 10.5428 11.0437 11.0365 11.0986L9.919 10.8414L10.4777 11.0412L10.2157 10.9431C10.8295 11.2183 11.4122 11.5186 12.0104 11.8392L11.8907 11.7722C12.2784 12.0558 12.6648 12.3417 13.0644 12.6097C13.2348 12.7355 13.4166 12.8449 13.6076 12.9364C13.7799 13.0187 13.9647 13.0716 14.1544 13.0931C14.2859 13.0899 14.4135 13.0483 14.5217 12.9735C14.6772 12.8957 14.7071 12.806 14.6701 12.6349C14.633 12.4638 14.5624 12.1826 14.4176 12.0582C14.2842 11.9153 14.1251 11.7988 13.9486 11.7148C13.6822 11.596 13.4122 11.4859 13.1386 11.3846C12.7278 11.2251 12.3187 11.0655 11.9111 10.906C11.525 10.5822 11.1461 10.2504 10.7745 9.91057L10.863 9.99193C10.5735 9.73485 10.3113 9.44858 10.0805 9.13767C9.96661 8.97859 9.90551 8.78776 9.90584 8.5921C9.85852 8.39584 9.88987 8.18886 9.99318 8.01542C10.0035 7.95687 10.0311 7.90276 10.0725 7.86009C10.1138 7.81743 10.1671 7.78818 10.2253 7.77613L10.0398 7.85749C10.1834 7.82877 10.3258 7.79647 10.4682 7.75699C10.6458 7.66629 10.8338 7.59758 11.0281 7.55239L10.8403 7.59427C11.2424 7.50254 11.6542 7.45995 12.0666 7.46745L11.2614 7.32268C11.6542 7.40485 12.0381 7.52506 12.4076 7.68161C12.7906 7.81412 13.1531 7.99979 13.4844 8.23317L13.3827 8.17215C13.9311 8.52446 14.4983 8.84678 15.0816 9.13767C15.2293 9.2451 15.4088 9.29987 15.5913 9.29321C15.711 9.30876 15.8306 9.31953 15.9502 9.32432C16.0567 9.29647 16.1575 9.25032 16.2482 9.18793C16.4324 9.07905 16.4097 8.94864 16.4384 8.73806C16.3319 8.49865 16.1576 8.29568 15.9371 8.1542C15.6491 7.99924 15.336 7.89636 15.0122 7.85031C14.456 7.7521 13.8942 7.68897 13.33 7.66127C11.0987 7.53445 8.85298 7.49855 6.61803 7.53325C6.57746 7.53024 6.53673 7.53631 6.49879 7.55101C6.46086 7.56571 6.42667 7.58867 6.39872 7.61823C6.37077 7.64778 6.34975 7.6832 6.33718 7.72189C6.32462 7.76059 6.32084 7.80159 6.3261 7.84193C6.38476 7.95717 6.46616 8.05933 6.56539 8.14224C6.65174 8.23422 6.75542 8.30822 6.87048 8.35999Z" fill="#ADD1C0"/>
<path id="Vector_10" opacity="0.11" d="M7.34672 7.78336C9.39622 7.80849 11.4433 7.84079 13.4904 7.92454C14.4679 7.96402 15.4837 8.00111 16.4229 8.30381L16.2518 8.23562C16.3659 8.26789 16.4692 8.33029 16.5509 8.41628L16.0305 7.79293L16.3655 8.23562L15.7673 6.94825L15.7074 7.49023L15.979 7.04396H15.6823L15.8127 7.05234C15.6867 7.02477 15.573 6.9572 15.4885 6.85971C15.3781 6.78163 15.2959 6.67002 15.254 6.54146C15.229 6.49483 15.1893 6.45779 15.141 6.43614C15.0927 6.4145 15.0386 6.40946 14.9872 6.42181L12.9664 6.67905L13.987 6.63358C13.1933 6.64316 12.3997 6.63797 11.606 6.61803L12.0045 6.6276C11.1897 6.60726 10.2684 6.54744 9.51586 6.93509C9.31237 7.0341 9.14044 7.18779 9.01934 7.37897C8.95131 7.46545 8.90433 7.56658 8.88211 7.67435C8.8599 7.78211 8.86305 7.89358 8.89132 7.99992C8.88153 8.16355 8.91324 8.327 8.98352 8.47509C9.0538 8.62318 9.16037 8.75111 9.29333 8.84699C9.69413 9.29685 10.1954 9.63425 10.6704 9.99558C11.0999 10.3222 11.5654 10.5938 12.0176 10.8917C12.2648 11.1085 12.557 11.2678 12.8731 11.3583C13.1482 11.4588 13.4234 11.5593 13.6974 11.6622C14.0894 11.808 14.4729 11.9758 14.846 12.1647L14.7 12.0726L14.8735 12.2233L14.5026 11.5665L14.7311 12.069L14.4296 10.7529L14.3602 10.9611L14.5995 10.8223L14.3818 10.7864L14.6019 10.9061L14.4189 10.6931L14.4727 10.8127L14.3949 10.4897C14.3679 10.445 14.3269 10.4104 14.2783 10.3911C14.2297 10.3719 14.1761 10.3691 14.1257 10.3832C13.6567 10.4247 13.1857 10.4438 12.7127 10.4406L13.561 10.4502L10.6489 10.1368C10.2413 10.0626 9.83093 10.0067 9.41776 9.96925C9.05882 9.93336 8.69989 9.91063 8.34096 9.90345C7.68984 9.88349 7.0381 9.90427 6.38957 9.96566C5.911 10.0183 5.25654 10.1116 4.90479 10.4933L4.70379 10.7577L4.65234 11.2363C4.74208 11.5091 4.94069 11.7436 5.09981 11.9781C5.19042 12.1225 5.3209 12.2376 5.47549 12.3095C5.66075 12.4924 5.87605 12.6421 6.112 12.7522C6.59057 13.0238 7.06077 13.3504 7.51781 13.6615L8.07774 14.0599L8.79561 14.3793L9.51347 14.6868C9.88277 14.7777 10.2533 14.8643 10.625 14.9464C11.6144 15.1702 12.6134 15.3425 13.6089 15.5375C14.3722 15.6882 15.1355 15.839 15.8654 16.1106L15.7062 16.0292L16.107 16.241L15.9491 16.1536L16.0855 16.2888L15.309 14.7418L15.2863 16.0579L15.6368 14.8352L15.2624 14.7873L15.382 14.8352L15.12 14.6772L15.2217 14.7562L15.0219 14.5349L15.1044 14.6354L15.0817 14.5026L15.0685 14.633L15.1307 14.4978C15.2923 14.1388 14.7802 14.1652 14.572 14.1664L12.3993 14.1029L12.7905 14.1269L11.9207 14.0324L12.3299 14.1089C11.9482 14.0216 11.5666 13.9331 11.1825 13.8553C10.703 13.7634 10.2169 13.7109 9.72883 13.6985C8.24046 13.6471 6.74491 13.7117 5.25894 13.7727C5.12733 13.7991 5.08904 13.8732 5.13929 13.9953C5.29301 14.1927 5.49663 14.3455 5.72914 14.4379C6.13672 14.6661 6.55269 14.8782 6.97702 15.0745C7.18946 15.2077 7.43349 15.282 7.68412 15.2898C8.5982 15.2037 9.51108 15.145 10.4252 15.0661C11.0329 15.0146 11.6336 14.9129 12.2437 14.9105H12.7821C13.098 14.9381 13.4139 14.9692 13.7285 15.0015C14.0444 14.9763 14.31 14.81 14.6019 14.6976L12.8073 14.615C13.1692 14.6962 13.5039 14.8697 13.7788 15.1187C13.9383 15.233 14.0799 15.3705 14.1987 15.5267C14.4221 15.7864 14.6737 16.0203 14.9489 16.2242C15.1211 16.348 15.3075 16.4508 15.504 16.5305L15.8833 16.625C15.9609 16.6541 16.0456 16.6582 16.1256 16.6368C16.2056 16.6153 16.277 16.5694 16.3296 16.5054C16.6131 16.3738 16.3595 15.8952 16.2913 15.7086C16.2172 15.4924 16.1297 15.281 16.0293 15.0756C15.9847 14.9121 15.8783 14.7722 15.7326 14.6856C15.5849 14.6419 15.4437 14.5787 15.3126 14.4978C15.1047 14.4117 14.8908 14.3409 14.6725 14.286C14.2286 14.1664 13.78 14.0659 13.3277 13.9761C12.7618 13.8649 12.1935 13.7656 11.6264 13.6639C11.1957 13.5841 10.7649 13.5043 10.3342 13.4246C9.87958 13.3201 9.42733 13.2088 8.97747 13.0908L9.11745 13.1733C8.74336 12.934 8.37885 12.6824 8.02391 12.4184L8.13517 12.538C8.05382 12.3394 7.98323 12.1336 7.92221 11.9254C7.90524 11.8813 7.87284 11.8449 7.83103 11.8229C7.78922 11.8009 7.74084 11.7948 7.69489 11.8058L7.3874 11.789L7.50704 11.8501L7.20435 11.6431L7.29886 11.7364L7.2522 11.5665L7.21631 11.6957C7.2604 11.6067 7.32833 11.5318 7.41253 11.4792C7.5399 11.4261 7.67654 11.3988 7.81453 11.399L7.57524 11.405C7.87567 11.434 8.17883 11.4134 8.47257 11.344C8.74376 11.3105 9.01416 11.2706 9.28375 11.2243C9.9406 11.1322 10.5998 11.052 11.2579 10.979L11.0306 10.997C11.3783 10.9643 11.7269 10.9432 12.0762 10.9336L11.1035 10.7709L11.8824 10.9683C12.1062 11.0524 12.3244 11.1507 12.5357 11.2626C12.7161 11.3383 12.8858 11.4373 13.0406 11.5569C13.3064 11.7264 13.5592 11.9156 13.7967 12.1228C13.965 12.2514 14.1439 12.3655 14.3315 12.4638C14.4787 12.5153 14.6282 12.5595 14.7778 12.5966C14.8423 12.6209 14.9131 12.6222 14.9785 12.6004C15.0438 12.5787 15.0997 12.5351 15.1367 12.477C15.4167 12.3418 15.2157 11.9099 15.1535 11.7005C15.095 11.4863 15.0226 11.2761 14.9369 11.0712C14.9205 10.9908 14.8884 10.9144 14.8424 10.8464C14.7964 10.7785 14.7375 10.7203 14.6689 10.6752C14.3698 10.5388 14.0958 10.3701 13.7871 10.2504C13.3086 10.0626 12.8408 9.80773 12.3765 9.57682L12.4962 9.68809L12.1373 9.27053L12.2354 9.39736C12.021 9.13603 11.8232 8.8615 11.6431 8.5754C11.5624 8.49203 11.4601 8.43278 11.3476 8.40431L11.4254 8.51199L11.2244 8.21647L11.2663 8.33612L11.2232 7.96522V8.10161C11.2608 7.97427 11.3314 7.85911 11.4278 7.76781L11.2256 7.86352L11.606 7.69841L11.3895 7.769C11.8872 7.67568 12.3538 7.49023 12.8479 7.37897L12.6314 7.42563C13.0573 7.33948 13.4809 7.27129 13.9044 7.1672L12.081 7.07268C12.7212 7.06338 13.3531 7.21826 13.9164 7.52254C14.2074 7.64214 14.481 7.80029 14.7299 7.99274C15.0757 8.23203 15.4478 8.59096 15.8462 8.72017C15.9313 8.75944 16.0241 8.77945 16.1178 8.7788L16.4612 8.83264L16.7483 8.70342C16.8251 8.63679 16.8878 8.55542 16.9326 8.46413C16.9526 8.34901 16.9282 8.23059 16.8644 8.13272C16.7877 7.93653 16.6915 7.74854 16.5772 7.57159L16.3308 7.17677C16.2606 7.01789 16.1321 6.89199 15.9718 6.82501C15.6632 6.75323 15.3736 6.63837 15.0602 6.57376C14.48 6.45721 13.8923 6.38283 13.3014 6.35123C12.8348 6.33806 12.367 6.32969 11.9004 6.3273C11.3683 6.29858 10.8359 6.27705 10.3031 6.26269C9.65944 6.24594 9.01575 6.23238 8.37207 6.22201C7.65421 6.20047 6.93395 6.157 6.2113 6.0916C6.18791 6.08858 6.16414 6.0905 6.14153 6.09723C6.11892 6.10397 6.09798 6.11538 6.08005 6.13071C6.06212 6.14604 6.04761 6.16497 6.03745 6.18626C6.02729 6.20755 6.02171 6.23073 6.02107 6.25431C6.03962 6.43773 6.12475 6.60799 6.26036 6.73289C6.46143 6.99563 6.67755 7.2465 6.90763 7.48425C7.01315 7.63363 7.16909 7.73985 7.34672 7.78336Z" fill="#ADD1C0"/>
<path id="Vector_11" opacity="0.11" d="M8.29226 9.17363C10.3453 9.17363 12.3996 9.21191 14.4515 9.30404C15.423 9.34831 16.4364 9.383 17.3684 9.6881L17.1579 9.5864L17.4378 9.77185L16.72 8.95827L17.1603 9.52179L16.2869 8.08607L16.6183 9.11979L16.3945 7.9401L16.294 8.12914L16.4137 8.06812L16.0547 8.22964L16.184 8.22126L15.7724 8.23682L15.3967 8.16982C14.6334 8.09803 13.4477 8.19973 12.9883 8.19614L13.3747 8.25955C12.7983 8.09672 12.2131 7.96689 11.6219 7.87071C11.2468 7.80871 10.8627 7.82871 10.4961 7.92933C10.1814 8.01189 9.81532 8.13153 9.62389 8.41987C9.4207 8.70821 9.33905 9.06489 9.39657 9.41291C9.48827 9.76179 9.67459 10.0785 9.93497 10.3282C10.1566 10.6219 10.4259 10.8762 10.7318 11.0807C10.9615 11.2698 11.1972 11.4481 11.4413 11.6168L12.1292 11.9936C12.7613 12.3208 13.4168 12.6007 14.0902 12.8311C14.6729 13.0333 15.2531 13.2092 15.7927 13.5119L15.6372 13.3779L15.7975 13.5418L15.0677 11.5749L14.8906 13.1865L15.2005 11.9661L14.8643 12.148L14.9839 12.0977C14.7783 12.1374 14.5706 12.1658 14.3618 12.1827L14.564 12.1707L12.3984 12.0355L12.8387 12.1647C11.9761 11.7843 11.0991 11.3739 10.1707 11.1753C9.29926 10.9944 8.40755 10.9313 7.51936 10.9874C6.95703 11.0209 6.37556 11.064 5.86708 11.3272C5.63025 11.4453 5.43496 11.6327 5.30714 11.8644L5.1875 12.3095C5.20078 12.4489 5.24448 12.5837 5.31552 12.7043C5.4914 13.1362 5.54165 13.22 5.97835 13.5993C6.31454 13.8888 6.68783 14.1496 7.04557 14.4128C7.62528 14.8379 8.24662 15.2031 8.90005 15.5028C9.2853 15.6495 9.67494 15.7843 10.069 15.9072C10.4392 16.0353 10.8178 16.1381 11.202 16.2147C12.3063 16.4683 13.4214 16.6693 14.5329 16.8907C15.3704 17.0558 16.2785 17.185 17.0274 17.6085L16.842 17.4793L16.9616 17.6181L16.1038 16.2015L16.702 17.3716L16.1229 15.6392L15.9662 16.0137L16.1792 15.8067L15.8358 15.9407L15.9662 15.9335C15.7077 15.9708 15.4448 15.9644 15.1885 15.9144L15.2974 15.9335C14.9073 15.8525 14.5101 15.8104 14.1117 15.8079L14.6645 15.9C13.827 15.6751 13.0014 15.4454 12.1651 15.2348L12.3314 15.285C12.0335 15.1412 11.7247 15.0212 11.4078 14.9261C10.9888 14.8346 10.5622 14.7817 10.1336 14.7682C8.74571 14.7 7.34946 14.7586 5.96279 14.8124C5.91967 14.8104 5.87678 14.8199 5.83847 14.8398C5.80015 14.8597 5.76777 14.8893 5.74458 14.9257C5.7214 14.9621 5.70824 15.004 5.70643 15.0472C5.70461 15.0903 5.71422 15.1331 5.73427 15.1714C5.83955 15.2905 5.96363 15.3915 6.10158 15.4705C6.2313 15.562 6.3752 15.6315 6.52751 15.6763C7.56363 15.6248 8.59495 15.5925 9.63825 15.5806L10.715 15.571C11.1123 15.6057 11.5083 15.644 11.9043 15.6834L11.7248 15.638C11.9793 15.7409 12.2321 15.8497 12.4834 15.9646C12.796 16.0678 13.1212 16.1278 13.4501 16.1429L13.2682 16.1106C13.7221 16.2191 14.172 16.3407 14.6178 16.4755L14.5305 16.4181C15.1024 16.8296 15.4876 17.4183 16.1182 17.7545C16.3024 17.8342 16.4875 17.9096 16.6733 17.9806C16.8982 18.0751 17.1028 17.9986 17.2847 17.7497C17.3301 17.7057 17.3595 17.6477 17.3681 17.585C17.3768 17.5224 17.3643 17.4586 17.3325 17.4039C17.2415 17.1754 17.134 16.9539 17.0107 16.7411C16.8683 16.4683 16.714 16.2039 16.5477 15.9455C16.4582 15.7425 16.3087 15.5717 16.1194 15.4561C15.5953 15.1965 14.9923 15.0888 14.4228 14.9775C13.5386 14.7969 12.6425 14.6701 11.7488 14.548C11.3444 14.493 10.94 14.4392 10.5356 14.3829C10.0272 14.3106 9.52466 14.2022 9.03165 14.0587C8.76477 14.0003 8.50931 13.8985 8.27551 13.7572L7.83761 13.5179C7.21546 13.2176 6.54546 13.2762 6.36479 12.2844L6.34326 12.5344C6.35573 12.4428 6.39186 12.356 6.44809 12.2826C6.50431 12.2091 6.57869 12.1516 6.6639 12.1157C6.79765 12.0312 6.94322 11.9671 7.09582 11.9254L6.97617 11.9601C7.50715 11.8599 8.04524 11.8019 8.58538 11.7866C9.28481 11.7792 9.98393 11.8192 10.678 11.9063L10.5021 11.8692C10.9011 11.961 11.289 12.0958 11.659 12.2712C11.9294 12.3869 12.2026 12.4953 12.4786 12.5966C12.7777 12.6816 13.0768 12.6636 13.3939 12.6732L12.9739 12.6194C13.3843 12.6887 13.7827 12.816 14.1572 12.9974C14.4324 13.1984 14.7016 13.4078 14.966 13.6232C15.1548 13.7306 15.3516 13.8234 15.5546 13.9008C15.6319 13.9423 15.7198 13.9599 15.8072 13.9514C15.8945 13.9429 15.9774 13.9086 16.0452 13.8529C16.361 13.7703 16.0859 13.0752 16.0392 12.8957C15.9738 12.6249 15.8939 12.3577 15.7999 12.0953C15.7643 11.8955 15.6638 11.713 15.514 11.5761C15.3775 11.5112 15.2456 11.4373 15.1191 11.3547C14.934 11.2732 14.7428 11.2064 14.5472 11.1549C14.1321 11.0496 13.7193 10.9683 13.3173 10.8486C12.8089 10.6845 12.3127 10.4846 11.8325 10.2504C11.5078 10.1515 11.2074 9.98565 10.9507 9.76347C10.7585 9.60887 10.6333 9.38598 10.6014 9.14132V9.27054C10.5551 9.01211 10.6405 8.83783 10.8574 8.7477L10.7378 8.80512C10.9403 8.70974 11.1548 8.64213 11.3755 8.60412C11.6332 8.52272 11.9082 8.5128 12.1711 8.57541L11.9892 8.54789C12.3865 8.6125 12.7813 8.67711 13.1737 8.76804C13.6595 8.8793 13.748 8.8147 14.3606 8.73214L13.8736 8.72137C14.2791 8.71902 14.6819 8.78703 15.0641 8.92238L14.9564 8.88648C15.2678 9.0317 15.5462 9.23893 15.7748 9.49547C15.9544 9.74477 16.2108 9.9284 16.5046 10.0183C16.708 10.0853 16.9126 10.1499 17.1184 10.2121C17.384 10.2919 17.6053 10.1758 17.7824 9.86397C17.8207 9.81142 17.8404 9.74764 17.8384 9.68266C17.8365 9.61769 17.813 9.55521 17.7716 9.50504C17.6418 9.28505 17.4963 9.07473 17.3361 8.87571C17.1487 8.61808 16.9493 8.36962 16.7379 8.13033C16.6138 7.93737 16.4357 7.7851 16.2258 7.69244C15.8741 7.58723 15.5138 7.51317 15.149 7.4711C14.5622 7.38605 13.9701 7.34208 13.3771 7.33949C13.0166 7.33949 12.6577 7.33949 12.3003 7.33949C11.7691 7.31237 11.2375 7.29043 10.7055 7.27368C10.0674 7.25693 9.42927 7.23779 8.79117 7.21626C8.09724 7.15484 7.40171 7.11496 6.70458 7.09661C6.21285 7.07627 6.84696 7.80131 6.87807 7.8384C7.15325 8.15745 7.44279 8.46813 7.74668 8.77043C7.88499 8.9555 8.07474 9.09573 8.29226 9.17363Z" fill="#ADD1C0"/>
<path id="Vector_12" opacity="0.11" d="M6.69293 9.4907C7.40818 9.41514 8.12829 9.39634 8.84652 9.43447L9.8587 9.44523C10.8159 9.4584 11.773 9.49309 12.7302 9.53616C13.6873 9.57924 14.6815 9.61633 15.6016 9.90826L15.4509 9.84963L15.6184 9.9262L15.1661 9.51463L15.6088 10.1128L15.5908 9.29329C15.0979 9.43766 14.6114 9.33716 14.1312 8.99179C13.7507 8.76925 13.3778 8.53514 13.0125 8.28948C12.2959 8.20014 11.5848 8.07032 10.8829 7.90063C10.6436 7.85357 10.4043 7.8101 10.165 7.77022C9.68204 7.69792 9.19 7.71332 8.71252 7.81569C8.30094 7.9126 7.92406 8.07172 7.68358 8.43903C7.30431 9.01811 7.51368 9.73238 7.93483 10.2337L8.42298 10.7505C8.80318 11.056 9.19893 11.3415 9.60865 11.606L10.8996 12.4435C11.2631 12.7558 11.6978 12.974 12.1654 13.0788C12.7409 13.2738 13.3236 13.4449 13.8668 13.7213L13.722 13.6172L13.8883 13.762L13.5712 13.3612L13.8716 13.8398L13.8404 12.9532C13.7381 12.9861 13.6288 12.9913 13.5238 12.9684C13.4187 12.9455 13.3216 12.8953 13.2422 12.8228C13.1058 12.8072 12.9744 12.7623 12.8571 12.691C12.7398 12.6198 12.6393 12.5239 12.5627 12.41L12.4645 12.3334C11.9491 12.2271 11.4424 12.0823 10.9487 11.9003C9.87186 11.5569 8.83336 11.1442 7.7099 11.009C6.7715 10.8863 5.82112 10.8863 4.88272 11.009C4.5802 11.0431 4.28477 11.1238 4.00693 11.2483C3.80712 11.344 3.50801 11.5725 3.40871 11.7795L3.28906 12.2892C3.30139 12.4768 3.36378 12.6578 3.46972 12.8132C3.53348 13.0373 3.64164 13.2463 3.78777 13.4278C3.93391 13.6093 4.11504 13.7596 4.32039 13.8697L4.96886 14.2908C5.30226 14.4808 5.61641 14.7028 5.90687 14.9536C6.24028 15.2232 6.57488 15.4908 6.91068 15.7564L7.0052 15.8306C7.52605 16.0197 8.05288 16.1876 8.58569 16.3343C9.74743 16.6298 10.9331 16.8452 12.1128 17.0522C13.0699 17.2245 14.0391 17.3752 14.9555 17.7054L14.806 17.6265L15.1805 17.8251L14.849 17.5858L15.1505 17.8646L14.8215 17.5056L15.1147 17.9268L15.0632 17.0893C14.9663 17.1285 14.8613 17.1438 14.7572 17.134C14.6532 17.1242 14.5529 17.0896 14.465 17.033C14.2461 17.0298 14.035 16.9517 13.8668 16.8117C13.6401 16.666 13.4263 16.5011 13.2279 16.3188L13.0628 16.1537C12.8645 16.0397 12.6568 15.9433 12.4418 15.8653C11.7886 15.5854 11.1186 15.2551 10.4366 15.0577C9.71812 14.8654 8.97977 14.757 8.23633 14.7347C6.81736 14.6617 5.38403 14.7203 3.96625 14.773C3.92164 14.7805 3.88083 14.8028 3.85028 14.8361C3.81972 14.8695 3.80117 14.9121 3.79755 14.9572C3.8041 15.0283 3.82587 15.0972 3.86138 15.1591C3.89689 15.221 3.9453 15.2746 4.00334 15.3162C4.17874 15.5023 4.36748 15.6755 4.56805 15.8342C4.61488 15.8892 4.67323 15.9333 4.73898 15.9633C4.80473 15.9933 4.87626 16.0084 4.94852 16.0077C5.73219 15.961 6.51346 15.9132 7.29833 15.906C7.92765 15.8988 8.55937 15.8402 9.1887 15.8462C9.54763 15.8462 9.90656 15.8581 10.2547 15.8833C10.7972 15.9331 11.3332 16.0382 11.8544 16.1967L11.6151 16.1202L12.1738 16.3128L11.511 16.0292L12.0015 16.2829L11.7778 16.1632C12.2253 16.5066 12.644 16.8811 13.0867 17.2269C13.3637 17.4573 13.6627 17.6601 13.9792 17.8323C14.1533 17.9301 14.3349 18.0137 14.5224 18.0823L15.001 18.1864C15.1763 18.203 15.3512 18.1502 15.4879 18.0392C15.6495 17.9734 15.6136 17.7832 15.5633 17.6648L15.4509 17.4446C15.3845 17.3187 15.2961 17.2057 15.19 17.1108C14.9312 16.9503 14.6485 16.832 14.3525 16.7603C14.0773 16.6849 13.7986 16.6203 13.515 16.5628C12.967 16.4516 12.4167 16.3547 11.8663 16.2589C11.2195 16.1465 10.5746 16.0268 9.93168 15.9C9.45311 15.8043 8.97453 15.7018 8.49596 15.5925C8.02297 15.4537 7.55476 15.3022 7.09134 15.1379L7.18586 15.2121C6.79343 14.7885 6.41216 14.355 6.04207 13.9115C5.95778 13.8038 5.85137 13.7153 5.73002 13.6522C5.60866 13.589 5.47518 13.5526 5.33856 13.5454L5.54076 13.6854L4.97963 12.8575L5.02509 12.9771C5.02798 12.8492 5.04038 12.7216 5.06218 12.5955C5.06046 12.5487 5.07052 12.5023 5.09142 12.4605C5.11233 12.4187 5.14342 12.3828 5.18183 12.3562L5.08013 12.4435C5.40436 12.2449 5.78244 12.197 6.15692 12.1456C6.78087 12.0722 7.40831 12.0323 8.03653 12.026H7.88697C9.16716 12.0678 10.5012 12.1731 11.6234 12.8635C11.8807 13.0573 12.1415 13.2439 12.4071 13.4258C12.6727 13.6076 12.9144 13.7751 13.1764 13.9367C13.3684 14.0215 13.5689 14.0853 13.7746 14.1269C13.8557 14.1393 13.9385 14.1352 14.0179 14.1146C14.0973 14.094 14.1716 14.0575 14.2365 14.0073C14.4052 13.9403 14.3693 13.7452 14.3238 13.6196L14.2149 13.3803C14.1514 13.2426 14.0648 13.1168 13.9589 13.0082C13.3774 12.6708 12.7397 12.4794 12.1092 12.2545L11.5947 12.0702L11.1042 11.6132C10.8224 11.3655 10.5563 11.1006 10.3074 10.8199C10.0271 10.5042 9.72443 10.2091 9.40166 9.93697L9.4555 10.0566L9.29997 9.58881L9.30715 9.71922C9.34561 9.50172 9.34763 9.27934 9.31313 9.06118L9.25091 9.18082L9.38132 8.94153L9.30236 9.04921C9.43157 8.987 9.5572 8.92 9.68163 8.84941C9.88831 8.75546 10.1045 8.68406 10.3265 8.63644L10.177 8.66037C10.9044 8.60653 11.6127 8.66994 12.3305 8.70823L11.8233 8.64362C12.116 8.71617 12.3932 8.84101 12.6416 9.01212C12.9782 9.19957 13.3104 9.39379 13.6383 9.59479L14.246 9.95372C14.4529 10.0945 14.6768 10.2083 14.9125 10.2923C15.0149 10.335 15.126 10.3531 15.2367 10.345C15.3656 10.3724 15.4976 10.382 15.6291 10.3737L15.9593 10.2313C16.0459 10.1706 16.1149 10.088 16.1591 9.99201C16.2381 9.87236 16.1029 9.71683 16.0395 9.63307C15.9534 9.51343 15.8229 9.32559 15.6806 9.27414C15.3569 9.15141 15.0224 9.05928 14.6815 8.99896C14.1296 8.91124 13.5732 8.85452 13.0149 8.82907C12.1415 8.7848 11.2657 8.75489 10.3911 8.73455C9.74743 8.7194 9.10375 8.71062 8.46007 8.70823C7.77195 8.66273 7.08102 8.68557 6.39741 8.77643C6.35847 8.78331 6.3213 8.7979 6.28808 8.81935C6.25486 8.8408 6.22627 8.86868 6.20397 8.90133C6.18168 8.93399 6.16614 8.97078 6.15827 9.00953C6.15039 9.04828 6.15034 9.08821 6.15812 9.12698C6.20717 9.27534 6.53859 9.50027 6.69293 9.4907Z" fill="#ADD1C0"/>
<path id="Vector_13" d="M0.276367 14.6437V20.6402C0.276367 20.7354 0.314183 20.8267 0.381496 20.894C0.448808 20.9614 0.540104 20.9992 0.635299 20.9992H17.6391C18.4215 20.9992 19.2064 21.0219 19.9877 20.9992H20.0176C20.1128 20.9992 20.2041 20.9614 20.2714 20.894C20.3387 20.8267 20.3765 20.7354 20.3765 20.6402V14.6437C20.3765 14.1819 19.6587 14.1807 19.6587 14.6437V20.6402L20.0176 20.2813H1.42255C1.1725 20.2813 0.917658 20.2669 0.667602 20.2813H0.635299L0.99423 20.6402V14.6437C0.99423 14.1819 0.276367 14.1807 0.276367 14.6437Z" fill="#5C5F61"/>
<path id="Vector_14" d="M11.6798 11.2782C10.6868 12.3167 9.89475 13.6495 9.77511 15.1068C9.76636 15.195 9.76357 15.2838 9.76674 15.3724L10.4355 15.1917L9.09434 13.1578L6.95989 9.92741L6.47294 9.1916C6.42209 9.11619 6.34451 9.06289 6.25588 9.04248C6.16724 9.02207 6.07416 9.03607 5.99545 9.08166C5.91675 9.12724 5.85828 9.20101 5.83187 9.28804C5.80546 9.37508 5.81308 9.4689 5.85319 9.55053L7.19439 11.5845L9.33003 14.8149L9.81579 15.5507C10 15.8282 10.5049 15.7469 10.4846 15.3688C10.481 15.3054 10.481 15.2419 10.4846 15.1786C10.4846 15.1056 10.4966 15.0326 10.5049 14.9596C10.493 15.0266 10.5133 14.8866 10.5049 14.9596C10.5049 14.9369 10.5049 14.9154 10.5145 14.8926C10.5241 14.8364 10.5348 14.7802 10.5456 14.7239C10.6727 14.113 10.9086 13.5298 11.2419 13.0023C11.5116 12.563 11.8285 12.1545 12.1871 11.7843C12.5066 11.4505 11.9993 10.9468 11.6798 11.277V11.2782Z" fill="#5C6062"/>
<path id="Vector_15" d="M14.4886 8.50366C14.4886 8.50366 11.4975 9.0612 11.933 11.5318C11.933 11.5318 14.6058 11.6862 14.4886 8.50366Z" stroke="#5C6062" stroke-width="0.598219" stroke-miterlimit="10"/>
<path id="Vector_16" d="M0.817354 2.77746L3.57514 1.29986L3.97236 1.0869L3.53805 1.03067C3.76506 1.29716 4.00798 1.54967 4.26549 1.78681C4.88374 2.3737 5.55955 2.89679 6.28268 3.34817C7.17722 3.91762 8.16624 4.32278 9.20319 4.5446C10.4024 4.79164 11.6463 4.70683 12.8009 4.29933C14.3168 3.75137 15.597 2.71286 16.6462 1.50326C16.8077 1.31661 16.9645 1.12518 17.1176 0.931361L16.6833 0.987594L19.4423 2.63987L19.8383 2.87916C20.2355 3.11845 20.5969 2.4963 20.1973 2.25941L17.4419 0.604734L17.0458 0.365446C16.9774 0.325135 16.8975 0.308669 16.8187 0.318629C16.7399 0.328588 16.6666 0.36441 16.6103 0.420482C15.6233 1.67315 14.4388 2.81336 12.9648 3.46422C12.8619 3.50849 12.7052 3.5719 12.5568 3.62335C12.4084 3.67479 12.2685 3.71906 12.1213 3.75974C11.9741 3.80042 11.8234 3.83512 11.6726 3.86383C11.6044 3.87819 11.5362 3.89015 11.468 3.90092L11.3663 3.91647H11.3759L11.3089 3.92485C11.0274 3.95795 10.744 3.97194 10.4606 3.96672C10.3195 3.96672 10.1795 3.95596 10.0395 3.94399L9.84807 3.92604L9.78585 3.91887C9.81935 3.91887 9.72603 3.90929 9.70689 3.9069C9.18269 3.82579 8.66855 3.68944 8.17305 3.50011L7.99479 3.43072L7.94095 3.40918L7.87275 3.37927C7.76028 3.33022 7.64782 3.27758 7.53655 3.22374C7.31561 3.11606 7.09865 3 6.88569 2.87557C6.492 2.64479 6.11245 2.39069 5.74907 2.11464L5.68925 2.06917C5.639 2.02969 5.7407 2.10866 5.67489 2.05721L5.55525 1.9591C5.47987 1.89928 5.4045 1.83946 5.33151 1.77485C5.19273 1.6584 5.05673 1.53875 4.92353 1.41592C4.61604 1.13715 4.34445 0.829664 4.05731 0.536537L4.04534 0.523376C3.9893 0.467393 3.91632 0.43152 3.83776 0.421349C3.7592 0.411178 3.67949 0.427279 3.61104 0.467143L0.85923 1.94355L0.454834 2.15771C0.0480447 2.37546 0.409369 2.99522 0.813765 2.77746H0.817354Z" fill="#5C5F61"/>
<path id="Vector_17" d="M36.061 8.48444C36.061 10.9431 34.7736 13.3097 31.4655 13.3097H26.8257V19.4893H25.3086V3.6604H31.5301C34.7736 3.6604 36.061 6.04969 36.061 8.48444ZM34.5439 8.48444C34.5439 6.7855 33.6944 5.08536 31.5121 5.08536H26.8257V11.8847H31.3973C33.6717 11.8847 34.5439 10.2073 34.5439 8.48444Z" fill="#5C5F61"/>
<path id="Vector_18" d="M38.1738 2.92578H39.6395V19.4893H38.1738V2.92578Z" fill="#5C5F61"/>
<path id="Vector_19" d="M53.1985 8.76087V19.4893H51.7233V17.2843C50.9193 18.7535 49.2658 19.7645 47.4042 19.7645C44.4873 19.7645 42.0059 17.307 42.0059 14.1137C42.0059 10.9886 44.3987 8.4845 47.4508 8.4845C49.2658 8.4845 50.9205 9.3579 51.7233 10.8283V8.76087H53.1985ZM51.7233 14.1592C51.7303 13.6046 51.6277 13.054 51.4214 12.5391C51.2152 12.0242 50.9094 11.5551 50.5214 11.1586C50.1335 10.7621 49.6712 10.4461 49.1609 10.2287C48.6506 10.0112 48.1024 9.89666 47.5478 9.89151C45.3188 9.89151 43.4799 11.8214 43.4799 14.1185C43.4799 16.4384 45.3176 18.3683 47.592 18.3683C48.14 18.3642 48.6817 18.252 49.1862 18.0381C49.6907 17.8242 50.1479 17.5127 50.5318 17.1217C50.9156 16.7306 51.2184 16.2676 51.4229 15.7592C51.6274 15.2509 51.7295 14.7071 51.7233 14.1592Z" fill="#5C5F61"/>
<path id="Vector_20" d="M65.857 13.2415V19.4905H64.3865V13.3097C64.3865 11.2423 63.0776 9.93219 61.3548 9.93219C59.6319 9.93219 57.8157 10.9432 57.7654 13.5394V19.4893H56.2998V8.76087H57.7702V10.6907C58.4139 9.15091 60.1631 8.4845 61.4923 8.4845C64.0886 8.4845 65.857 10.2768 65.857 13.2415Z" fill="#5C5F61"/>
<path id="Vector_21" d="M76.8849 5.08536H71.83V19.4893H70.3141V5.08536H65.2891V3.6604H76.8945L76.8849 5.08536Z" fill="#ADD1C0"/>
<path id="Vector_22" d="M88.4165 18.0643V19.4893H79.1357V3.6604H88.1641V5.08536H80.6265V11.0113H87.1961V12.4363H80.6289V18.0595L88.4165 18.0643Z" fill="#ADD1C0"/>
<path id="Vector_23" d="M100.658 18.0643V19.4893H91.3809V3.6604H100.409V5.08536H92.8716V11.0113H99.4425V12.4363H92.874V18.0595L100.658 18.0643Z" fill="#ADD1C0"/>
<path id="Vector_24" d="M102.246 16.6406H103.602C103.763 17.5367 104.59 18.4556 106.152 18.4556C107.691 18.4556 108.633 17.6516 108.633 16.5712C108.633 15.699 108.034 15.1247 106.934 14.8484L105.394 14.481C103.878 14.1137 102.66 13.3325 102.66 11.5402C102.66 9.7946 104.153 8.4845 106.198 8.4845C107.993 8.4845 109.644 9.47275 109.713 11.4026H108.288C108.22 10.4371 107.278 9.7946 106.221 9.7946C104.98 9.7946 104.127 10.5531 104.127 11.5665C104.127 12.5799 105 13.0142 105.782 13.1985L107.366 13.5885C109.461 14.0898 110.109 15.3544 110.109 16.5916C110.109 18.4987 108.386 19.7621 106.161 19.7621C104.291 19.7645 102.43 18.6853 102.246 16.6406Z" fill="#5C5F61"/>
</g>
</g>
</g>
<defs>
<clipPath id="clip0_51_421">
<rect width="109.827" height="20.69" fill="white" transform="translate(0.276367 0.319946)"/>
</clipPath>
</defs>
</svg>
